<?xml version="1.0" encoding="utf-8"?>
<!-- Generator: Adobe Illustrator 25.4.1, SVG Export Plug-In . SVG Version: 6.00 Build 0)  -->
<svg version="1.1" id="Layer_1" xmlns="http://www.w3.org/2000/svg" xmlns:xlink="http://www.w3.org/1999/xlink" x="0px" y="0px"
	 viewBox="0 0 504.25 493.67" style="enable-background:new 0 0 504.25 493.67;" xml:space="preserve">
<style type="text/css">
	.st0{fill:#FFFFFF;}
</style>
<path class="st0" d="M494.52,265.61c-0.31,1.58-0.62,3.05-0.83,4.63c-0.93,6.94-1.55,13.99-2.69,20.83c-1.24,7.15-3,14.2-4.76,21.25
	c-1.55,5.99-3.41,11.99-5.38,17.88c-1.24,3.68-2.79,7.36-4.34,10.94c-2.69,6.31-5.38,12.62-8.38,18.72
	c-3,5.99-6.31,11.89-9.83,17.57c-3.72,5.99-7.66,11.89-11.9,17.57c-4.24,5.68-8.79,11.26-13.45,16.62
	c-5.9,6.84-12.11,13.25-18.93,19.15c-5.07,4.31-10.04,8.73-15.32,12.83c-4.76,3.68-9.73,7.15-14.79,10.52
	c-5.17,3.36-10.35,6.63-15.83,9.68c-5.17,2.84-10.55,5.36-15.93,7.89c-3.72,1.79-7.55,3.58-11.48,5.05c-4.45,1.68-9,3.26-13.45,4.73
	c-3.31,1.16-6.52,2.21-9.83,3.16c-2.79,0.84-5.69,1.47-8.49,2.21c-2.48,0.63-4.97,1.26-7.55,1.79c-3,0.63-6,1.16-9,1.58
	c-3.52,0.53-7.03,1.05-10.66,1.68c-0.1,0-0.21,0.1-0.41,0.1c-3.83,0.32-7.55,0.53-11.38,0.95c-1.24,0.1-2.48,0.53-3.72,0.74
	c-9.11,0-18.21,0-27.32,0c-0.93-0.21-1.76-0.63-2.69-0.74c-1.55-0.21-3.1-0.11-4.55-0.21c-3.31-0.31-6.73-0.74-10.04-1.26
	c-3.31-0.42-6.52-0.84-9.83-1.47c-3.93-0.74-7.86-1.47-11.69-2.42c-4.66-1.05-9.21-2.21-13.76-3.47c-3.31-0.95-6.62-2.1-9.83-3.16
	c-2.69-0.84-5.38-1.68-7.97-2.74c-3.41-1.26-6.73-2.63-10.04-4.1c-3.62-1.58-7.24-3.16-10.76-4.94c-3.62-1.79-7.24-3.79-10.76-5.68
	c-2.9-1.58-5.79-3.16-8.59-4.84c-4.76-3.05-9.52-6.21-14.17-9.47c-4.45-3.16-8.79-6.42-13.04-9.89c-5.48-4.63-10.76-9.36-15.93-14.2
	c-7.45-6.94-14.18-14.62-20.59-22.62c-3.21-4-6.1-8.1-9.11-12.31c-2.9-4.1-5.69-8.31-8.28-12.52c-2.48-4.1-4.97-8.2-7.24-12.52
	c-2.59-4.73-4.86-9.57-7.24-14.52c-1.45-3.05-2.69-6.21-3.93-9.36c-1.14-2.94-2.38-5.79-3.41-8.73c-1.45-4-2.79-8.1-4.14-12.2
	c-0.72-2.31-1.45-4.63-2.07-6.94c-1.14-4.42-2.17-8.94-3.21-13.47c-0.72-3.05-1.35-6.21-1.86-9.36c-0.41-2-0.72-4-0.93-6.1
	c-0.72-5.79-1.45-11.57-1.97-17.36c-0.31-2.74-0.31-5.57-0.41-8.31c-0.21-2.63-0.41-5.26-0.62-7.89c0-2.74,0-5.37,0-8.1
	c0.21-2.42,0.41-4.84,0.62-7.26c0.21-3.26,0.31-6.52,0.62-9.78c0.41-4.31,0.83-8.63,1.35-12.94c0.41-3.58,1.14-7.05,1.76-10.52
	c0.83-4.42,1.66-8.94,2.69-13.25c1.66-6.52,3.52-13.04,5.48-19.46c1.45-4.63,3-9.15,4.76-13.57c1.97-4.94,4.14-9.89,6.42-14.73
	c2.48-5.26,5.07-10.41,7.76-15.46c1.86-3.47,3.93-6.84,6.1-10.2c2.9-4.52,5.59-9.05,8.79-13.25c4.86-6.52,9.83-12.94,15.21-19.04
	c5.79-6.52,11.8-12.73,18.11-18.72c5.59-5.26,11.59-10.1,17.59-14.83c5.17-4,10.66-7.78,16.14-11.36
	c5.07-3.26,10.35-6.31,15.73-9.15c4.97-2.74,9.93-5.15,15-7.57c4.24-2,8.59-3.68,12.93-5.36c4.76-1.79,9.52-3.47,14.38-5.05
	c2.69-0.84,5.38-1.68,8.07-2.42c4.14-1.05,8.17-2.1,12.31-3.05c2.9-0.63,5.9-1.16,8.9-1.68c3.1-0.53,6.21-1.05,9.31-1.58
	c2.79-0.42,5.69-0.74,8.48-0.95c4.04-0.42,8.17-0.63,12.21-1.05c0.41,0,0.93-0.32,1.35-0.53c6.83,0,13.76,0,20.59,0
	c0.73,0.21,1.35,0.53,2.07,0.53c1.65,0.21,3.41,0.21,5.07,0.42c5.59,0.53,11.07,1.05,16.66,1.79c3.31,0.42,6.52,0.84,9.83,1.47
	c3.52,0.63,6.93,1.47,10.35,2.31c3.93,0.95,7.86,1.89,11.8,3.05c3.62,1.05,7.14,2.1,10.66,3.37c4.45,1.58,8.9,3.16,13.35,4.94
	c3.93,1.58,7.76,3.37,11.48,5.05c3.31,1.58,6.73,3.05,9.93,4.84c4.45,2.42,8.9,4.94,13.14,7.68c5.48,3.47,10.97,7.15,16.25,10.83
	c7.97,5.47,15.42,11.68,22.35,18.41c5.48,5.15,10.76,10.52,15.83,16.09c4.45,4.94,8.59,10.2,12.73,15.46
	c6.83,8.73,12.93,18.09,18.31,27.88c3.31,6,6.42,12.1,9.31,18.3c2.59,5.68,5.07,11.36,7.24,17.25c2.07,5.47,3.83,11.04,5.48,16.62
	c1.55,5.47,3,10.94,4.34,16.41c0.93,3.89,1.66,7.89,2.28,11.78c0.93,5.47,1.66,10.94,2.38,16.41c0.21,1.68,0.1,3.37,0.31,5.05
	c0.1,0.84,0.41,1.58,0.62,2.42C494.52,240.89,494.52,253.3,494.52,265.61z M487.9,223.22c-4.55-51.86-25.76-101.51-64.87-142.54
	C372.53,27.77,310.55,3.05,238.13,7.05c-59.08,3.37-110.09,26.82-151.89,69.43C36.98,126.86,13.6,188.08,16.81,259.09
	c2.69,59.43,25.04,110.56,64.87,154C133,466,195.08,490.93,268.03,487.04c37.66-2.1,72.74-13.36,105.02-33.03
	c44.18-27.03,76.67-64.59,96.95-112.87C485.31,305.06,491,267.29,487.9,223.22z"/>
<path class="st0" d="M444.13,261.3c-1.96,45.76-22.25,92.46-62.08,129.81c-32.38,30.4-71.08,47.65-115.06,50.6
	c-60.32,4.1-111.85-16.3-153.65-60.59C81.37,347.24,64.82,306,61.09,259.4c-2.28-59.85,16.55-111.61,59.18-153.37
	c34.66-34.08,76.67-52.18,124.78-53.96c55.04-2,102.85,16.83,142.37,56.07C426.44,146.95,445.79,199.97,444.13,261.3z M440.2,247.52
	c-0.41-6.94-0.62-13.36-1.24-19.78c-0.72-8.2-1.96-16.41-4.14-24.4c-1.55-5.99-3-11.99-5.07-17.88c-2.28-6.63-5.07-13.04-7.76-19.46
	c-2.9-6.84-6.42-13.47-10.55-19.78c-4.35-6.63-9-13.15-13.76-19.57c-2.48-3.37-5.38-6.52-8.28-9.47
	c-3.52-3.79-7.14-7.47-10.97-10.94c-4.66-4.21-9.41-8.1-14.28-11.99c-3.21-2.52-6.52-4.94-10.04-7.15
	c-3.93-2.52-7.86-4.84-11.9-7.15c-4.14-2.31-8.28-4.52-12.52-6.52c-3.72-1.79-7.55-3.26-11.38-4.73c-3.41-1.26-6.83-2.52-10.24-3.68
	c-2.9-0.95-5.79-1.79-8.69-2.52c-2.79-0.74-5.59-1.47-8.38-2c-1.65-0.32-3.31-0.53-4.97-0.84c-1.86-0.32-3.72-0.84-5.69-1.16
	c-2.9-0.42-5.8-0.63-8.69-1.05c-2.9-0.42-5.9-0.21-8.79-0.74c-1.76-0.32-3.62-0.21-5.48-0.21c-5.8,0.11-11.48-0.42-17.28,0.53
	c-3.31,0.53-6.83,0.32-10.14,0.63c-2.38,0.21-4.76,0.74-7.14,1.16c-1.55,0.21-3,0.53-4.55,0.74c-2.79,0.53-5.48,0.95-8.28,1.68
	c-2.79,0.63-5.59,1.58-8.38,2.31c-2.48,0.74-5.07,1.37-7.55,2.21c-3.93,1.37-7.76,2.84-11.59,4.42c-3.62,1.47-7.24,2.95-10.76,4.73
	c-5.79,3.05-11.48,6.31-17.18,9.57c-6.42,3.79-12.42,8.21-18.21,12.94c-3.83,3.16-7.45,6.42-11.07,9.78
	c-3.83,3.58-7.55,7.26-11.07,11.26c-4.24,4.84-8.38,9.89-12.21,15.04c-3.83,5.15-7.55,10.52-10.76,16.2
	c-3.72,6.52-7.14,13.36-10.24,20.3c-2.69,6-4.86,12.2-7.04,18.41c-1.35,3.79-2.17,7.68-3.21,11.57c-0.72,2.74-1.45,5.47-1.97,8.31
	c-0.41,2.21-0.72,4.42-1.14,6.73c-0.52,3.58-1.14,7.26-1.45,10.84c-0.31,3.16-0.41,6.31-0.62,9.36c-0.21,3.05-0.62,6-0.52,9.05
	c0.1,6.63,0.31,13.36,0.72,19.99c0.31,4.52,0.93,9.15,1.66,13.68c0.72,4.63,1.66,9.15,2.79,13.67c1.14,4.73,2.38,9.47,3.83,14.1
	c1.24,4.1,2.79,7.99,4.35,11.99c1.45,3.79,3,7.57,4.76,11.26c2.28,4.63,4.66,9.26,7.14,13.78c2.17,3.89,4.66,7.78,7.14,11.47
	c2.69,4,5.59,7.89,8.59,11.67c3.41,4.31,6.93,8.52,10.66,12.52c6.1,6.63,12.62,12.73,19.66,18.2c3.72,2.95,7.55,5.79,11.49,8.52
	c3.62,2.53,7.24,4.94,11.07,7.15c3.42,2,7.04,3.89,10.66,5.68c4.66,2.21,9.31,4.52,14.18,6.42c4.55,1.79,9.21,3.37,13.76,4.84
	c4.14,1.26,8.28,2.42,12.42,3.47c2.38,0.63,4.76,0.95,7.14,1.37c3.93,0.63,7.97,1.37,11.9,1.89c3.83,0.53,7.55,1.05,11.38,1.26
	c4.24,0.21,8.48,0,12.73-0.11c1.03,0,2.07,0.21,3.1,0.21c3.52-0.11,7.03-0.21,10.66-0.53c4.76-0.42,9.52-0.84,14.28-1.58
	c4.04-0.63,7.97-1.47,11.9-2.31c3.31-0.74,6.62-1.47,9.83-2.42c4.35-1.37,8.69-2.84,13.04-4.31c3-1.05,5.9-2.1,8.79-3.37
	c4.04-1.79,7.97-3.68,11.8-5.68c3.52-1.79,7.04-3.68,10.35-5.68c6.42-3.79,12.52-7.89,18.31-12.62c4.14-3.47,8.48-6.73,12.42-10.41
	c7.76-7.05,14.8-14.83,21.31-23.14c5.07-6.42,9.62-13.25,13.76-20.3c0.83-1.26,1.35-2.74,2.07-4.1c0.62-1.16,1.55-2.21,2.17-3.47
	c1.66-3.26,3.31-6.52,4.86-9.89c1.45-3.05,2.79-6.21,4.03-9.47c1.45-3.79,2.79-7.68,4.14-11.57c1.14-3.58,2.17-7.05,3.21-10.73
	c0.72-2.84,1.24-5.68,1.86-8.42c0.62-2.84,1.35-5.58,1.76-8.42c0.62-3.37,1.14-6.73,1.35-10.1
	C439.27,261.72,439.68,254.46,440.2,247.52z"/>
<path class="st0" d="M93.17,124.86c-0.72,1.47-1.45,2.84-2.07,4.31c-1.24,3.26-2.38,6.52-3.52,9.89c-1.55,4.73-2.9,9.68-6.1,13.57
	c-2.69,3.26-5.9,6-9.93,7.36c-2.59,0.84-5.28,0.84-7.66-0.95c-0.72-0.53-1.34-0.53-2.07-0.11c-1.55,0.95-3.1,1.47-4.86,1.37
	c-3.93-0.21-7.04-2.21-9.42-5.26c-1.66-2-2.79-4.42-2.79-6.94c0-3.37,1.34-6.31,4.35-8.31c0.72-0.42,1.86-0.84,1.97-1.37
	c0.21-0.63-0.62-1.47-0.93-2.31c-0.83-2.42-0.62-4.84,0.41-7.05c1.66-3.58,4.35-6.1,7.97-7.36c4.45-1.58,8.28-0.11,11.17,3.47
	c0.41,0.53,0.72,1.05,1.03,1.58c0.52,0.74,0.21,1.05-0.52,1.16c-2.38,0.21-4.45,1.37-5.69,3.47c-1.55,2.63-1.14,5.36,0.21,7.89
	c1.03,1.89,2.48,3.26,4.55,4c1.97,0.74,4.04,0.74,6.1,0c2.38-0.84,4.04-2.42,5.38-4.31c1.24-1.89,2.17-4,3.21-6.1
	c1.24-2.31,2.59-4.52,3.83-6.84c0.83-1.58,2.28-1.26,3.62-1.37C91.92,124.55,92.44,124.76,93.17,124.86z M81.16,150.74
	c-0.1-0.11-0.21-0.21-0.31-0.32c-0.72,0.63-1.45,1.16-2.07,1.79c-1.97,1.89-4.24,3.36-6.83,4.21c-2.59,0.74-5.07,0.31-7.35-1.05
	c-1.03-0.63-1.76-0.74-3,0.11c-1.24,0.84-2.79,1.47-4.35,1.58c-2.59,0.21-4.76-1.05-6.52-2.95c-2.59-2.74-3.21-6.73-1.03-10.1
	c1.14-1.79,2.9-2.95,4.66-4c1.34-0.84,1.34-0.84,0.31-2c-1.55-1.58-2.28-3.58-2.17-5.79c0-1.05,0.21-2.1,0.21-3.16
	c-0.41,0.21-0.72,0.42-0.83,0.74c-1.35,3.05-0.72,5.68,1.24,8.2c0.52,0.63,0.52,0.95-0.21,1.47c-1.24,0.84-2.48,1.68-3.62,2.84
	c-2.07,2.1-3.21,4.73-2.38,7.78c1.14,4.21,3.72,6.94,7.97,8.2c2.48,0.74,4.55,0.32,6.62-0.84c1.03-0.63,2.07-1.05,3.21-0.11
	c0.41,0.42,1.14,0.63,1.66,0.63c2.17,0.11,4.35,0.31,6.52-0.63c3.1-1.37,5.69-3.37,7.86-5.89
	C80.96,151.27,80.96,150.95,81.16,150.74z M63.47,130.65c-0.41,0.32-0.83,0.63-1.03,0.95c-1.86,2-1.97,4.63-1.55,7.05
	c0.72,4.21,5.17,8.42,9.73,8.84c3,0.21,5.9,0.11,8.28-2.21c1.97-2,3.52-4.31,4.45-6.94c0-0.11-0.1-0.21-0.21-0.42
	c-0.72,1.05-1.34,2-1.97,2.84c-3,4.31-7.55,6.73-13.04,4.1c-3.83-1.79-6.31-4.94-5.79-9.47C62.44,133.8,62.95,132.33,63.47,130.65z"
	/>
<path class="st0" d="M56.75,285.91c0.93,2.1,1.66,4,2.59,5.89c1.35,2.63,2.79,5.26,4.14,7.89c1.55,2.84,3.21,5.68,4.45,8.63
	c1.34,3.16,1.97,6.63,1.66,10.1c-0.31,3.37-0.83,6.84-3.1,9.57c-1.03,1.26-2.28,2.31-3.93,2.74c-0.93,0.31-1.55,0.74-1.86,1.89
	c-0.62,2.84-2.38,5.05-4.97,6.42c-3.72,2-7.55,2.31-11.49,0.63c-3.1-1.26-5.17-3.68-6-7.15c-0.41-1.68-0.1-3.16,0.31-4.63
	c0.31-1.05-0.1-1.37-0.93-1.58c-2.07-0.53-3.83-1.68-5.17-3.47c-1.66-2.31-2.48-5.05-2.38-7.79c0.21-3.79,1.24-7.26,4.55-9.57
	c2.17-1.47,4.55-2.21,7.24-1.68c2.07,0.42,2.07,0.42,1.03,2.31c-1.76,2.95-1.24,6.73,1.45,8.94c2.69,2.21,5.69,2.63,9,1.47
	c4.66-1.68,6.62-7.79,5.28-11.99c-1.55-4.63-3.1-9.36-4.66-13.99c-0.41-1.26-0.1-2.21,0.93-2.95
	C55.61,287.18,56.12,286.54,56.75,285.91z M32.84,319.05c-0.1,0.11-0.21,0.11-0.31,0.21c0.1,0.53,0.21,1.05,0.41,1.47
	c1.55,2.52,3.62,4.31,6.73,4.31c0.83,0,1.14,0.21,1.03,1.26c-0.31,1.79-0.62,3.58-0.41,5.37c0.31,2.52,1.66,4.73,3.83,6
	c2.48,1.58,5.28,2,8.28,1.16c4.04-1.16,6.62-3.58,7.55-7.89c0.1-0.53,0.62-0.95,1.03-1.26c1.24-0.95,2.79-1.47,3.83-2.63
	c2.69-2.74,3.41-6.21,3.41-9.89c0-1.37-0.21-2.84-0.31-4.21c-0.1,0-0.31,0-0.41,0c-0.21,2-0.31,4-0.62,6
	c-0.62,4.21-2.48,7.57-6.73,9.05c-1.24,0.42-2.28,1.05-2.07,2.84c0.1,0.74-0.21,1.47-0.52,2.21c-1.76,3.58-6.1,5.37-10.14,4.21
	c-5.79-1.58-6.52-6.84-5.48-11.47c0.41-1.68,0.52-1.68-1.14-1.68c-2.79,0-5.28-0.95-6.83-3.47
	C33.67,319.89,33.15,319.47,32.84,319.05z M41.43,312.74c-0.1,0-0.21,0-0.31,0c0,0.42-0.21,0.95-0.1,1.26
	c0.52,2.53,1.97,4.31,4.04,5.58c3,1.79,6.31,1.79,9.52,0.63c3.41-1.16,5.59-3.79,6.93-6.94c1.55-3.79-0.21-7.15-1.66-10.52
	c0,1.26,0.31,2.63,0.52,3.89c0.62,2.95,0.21,5.68-1.55,8.1c-1.86,2.63-4.55,3.79-7.66,4.31c-3.21,0.53-6.62-1.05-8.38-3.89
	C42.47,314.42,41.95,313.58,41.43,312.74z"/>
<path class="st0" d="M36.67,258.88c-0.93,1.58-2.07,3.05-2.59,4.63c-1.14,3.16,0.62,6.94,3.72,8.31c1.24,0.53,2.48,1.05,3.72,1.26
	c3,0.42,5.48-0.74,7.35-3.05c2.38-2.94,2.79-6.31,2.07-10.1c-0.83-4.31-1.03-8.73-1.45-13.15c0-0.31,0.1-0.74,0.31-0.84
	c1.03-0.74,2.07-1.47,3.31-2.31c0.1,0.63,0.21,1.16,0.31,1.68c0.72,2.95,1.24,5.89,2.07,8.73c1.14,4,2.59,7.89,3.72,11.99
	c0.41,1.58,0.41,3.37,0.41,5.15c0,4.1-0.62,8.1-2.48,11.78c-1.66,3.26-4.14,5.57-7.97,5.89c-0.62,0-1.35,0.74-1.66,1.26
	c-2.07,3.89-5.28,5.79-9.52,5.89c-3.93,0.11-7.35-1.16-10.04-4.1c-2.59-2.94-3.21-7.47-1.14-10.83c0.62-0.95,0.31-1.47-0.52-1.89
	c-3.52-1.68-5.07-4.63-5.17-8.42c-0.21-4.21,0.93-7.89,3.93-10.83c2.79-2.63,6.1-3.16,9.62-1.89c0.52,0.21,1.03,0.31,1.55,0.42
	C36.47,258.56,36.67,258.77,36.67,258.88z M29.33,278.76c-0.21,0.74-0.41,1.37-0.72,2c-0.83,1.79-1.24,3.68-0.93,5.68
	c0.41,3.05,2.07,5.16,4.76,6.52c2.69,1.47,5.48,1.58,8.38,0.74c3-0.84,5.17-2.95,6.21-6c0.1-0.31,0.72-0.74,1.14-0.74
	c3.72,0.11,5.79-2.42,7.66-5.05c1.66-2.31,2.28-5.15,2.69-7.99c0.1-0.63,0-1.26-0.1-1.89c-0.1,0-0.21,0-0.31,0
	c-0.52,1.79-0.93,3.68-1.55,5.37c-0.62,2-1.55,3.89-3.1,5.26c-1.76,1.58-3.72,2.52-6.1,2.63c-0.52,0-1.03,0.42-1.34,0.84
	c-0.41,0.63-0.52,1.37-0.93,2c-1.66,3.05-4.24,4.42-7.55,4.42c-3.21-0.11-5.9-1.26-7.45-4.31c-1.66-3.16-0.93-6.31,0.62-9.26
	c0.62-1.26,0.62-1.47-0.72-1.89c-0.31-0.11-0.52-0.21-0.83-0.21c-2.07-0.53-3.72-1.47-4.66-3.47c-0.41-0.84-0.93-1.68-1.45-2.74
	C22.19,274.03,24.36,276.66,29.33,278.76z M32.64,266.66c-0.1,0.11-0.31,0.21-0.41,0.21c-0.1,0.53-0.31,1.05-0.21,1.58
	c0.21,1.79,0.83,3.47,2.07,4.84c1.76,1.89,3.83,2.84,6.42,3.37c3.31,0.63,6.21-0.11,8.79-2.21c1.34-1.05,2.69-2.21,3.41-4
	c1.14-2.42,0.72-4.94,0.62-7.47c0-0.42-0.21-0.74-0.41-1.05c-0.1,0-0.21,0-0.31,0c-0.1,2.84-0.1,5.68-1.66,8.2
	c-1.66,2.63-4.04,4.1-6.93,4.52C38.02,275.5,34.09,272.97,32.64,266.66z"/>
<path class="st0" d="M69.06,326.41c0.52,0.84,0.93,1.68,1.55,2.31c3.1,3.89,6,7.99,9.42,11.47c3.52,3.68,6.1,7.89,7.55,12.73
	c0.83,2.84,1.24,5.79,0.72,8.73c-0.52,3.26-1.76,6.1-4.97,7.79c-0.41,0.21-0.93,1.05-0.93,1.58c0,4.63-3.21,8.52-7.04,9.78
	c-1.86,0.63-3.72,1.05-5.69,1.37c-3,0.31-7.55-2.53-8.9-5.37c-0.83-1.79-1.45-3.58-1.03-5.68c0.1-0.74-0.21-1.05-0.93-1.05
	c-4.97-0.31-8.28-3.26-9.52-8.31c-0.72-2.84-0.72-5.68,0.41-8.52c1.76-4.31,6.1-6.31,10.24-5.99c0.1,0,0.21,0.1,0.21,0.21
	c-0.31,1.47-0.72,2.84-0.83,4.31c-0.21,2.63,1.86,5.37,4.04,6.31c3.41,1.47,7.76,0.63,10.24-2.1c1.86-2,2.38-4.52,2.28-7.15
	c-0.1-1.89-0.72-3.58-1.76-5.16c-2.38-4.1-4.76-8.1-7.14-12.2c-0.41-0.74-0.41-1.26,0.21-2C67.92,328.52,68.33,327.46,69.06,326.41z
	 M85.2,350.4c-0.21,0-0.31,0.1-0.52,0.1c0.1,0.53,0.21,1.05,0.31,1.58c0.21,2.42,0.93,4.73,0.52,7.26
	c-0.62,3.58-2.28,6.21-5.28,7.99c-0.72,0.42-1.03,1.05-0.93,2c0.31,1.89,0,3.68-1.03,5.26c-1.55,2.31-3.72,3.58-6.52,4
	c-3.31,0.53-6.83-1.26-8.28-4.42c-0.83-1.89-1.14-3.79-0.93-5.89c0.1-0.74,0.21-1.79-1.14-1.47c-3.21,0.84-6,0.1-8.38-2.31
	c-0.31-0.31-0.62-0.42-1.24-0.84c1.03,3.16,5.07,5.57,8.17,4.73c0.83-0.21,1.24-0.11,1.35,0.84c0,0.42,0.21,0.95,0.1,1.37
	c-0.41,2.1,0.31,3.89,1.24,5.47c3,5.05,8.79,5.15,13.04,2.74c3.41-2,5.48-4.94,5.17-9.26c0-0.53,0.62-1.26,1.03-1.58
	c2.17-1.05,3.21-3.05,4.04-5.15c1.24-3.58,0.72-7.15-0.21-10.62C85.82,351.66,85.51,351.03,85.2,350.4z M59.44,355.66
	c-0.21,2.73,2.59,5.89,5.48,6.42c6.42,1.26,11.9-1.79,13.97-8.31c0.41-1.16,0.72-2.63,0.41-3.79c-0.52-2.1-1.55-4-2.48-5.99
	c-0.41-0.95-1.03-1.79-1.66-2.63c-0.1,0-0.21,0.1-0.31,0.1c0.1,0.42,0.21,0.95,0.41,1.37c0.52,1.26,1.14,2.42,1.66,3.68
	c0.62,1.79,1.14,3.58,0.62,5.57c-0.62,2.63-1.97,4.63-4.04,6.31c-2.9,2.31-8.79,3.58-12.42-0.42
	C60.57,357.23,60.06,356.5,59.44,355.66z"/>
<path class="st0" d="M58.09,201.44c0,1.05,0,2,0,2.94c0.1,2.84,0.21,5.58,0.41,8.42c0,0.63,0.1,1.26,0.1,1.89
	c0.31,3.58,0.83,7.15,0.83,10.73c0,5.57-1.86,10.73-5.28,15.15c-2.28,2.95-5.28,4.63-9.11,4.21c-0.52-0.11-1.35,0.32-1.66,0.74
	c-2.79,3.58-7.04,4.94-11.38,3.79c-3.21-0.95-6.1-2.42-7.97-5.37c-2.28-3.68-2.28-8.21,0.72-11.57c0.52-0.63,0.83-1.16,0.1-1.68
	c-4.04-2.95-4.66-7.79-3-12.31c1.34-3.58,3.62-6.31,7.14-7.68c2.69-1.05,5.38-0.63,7.97,0.74c0.83,0.42,1.55,0.95,2.38,1.47
	c-1.03,1.05-2.07,1.89-3,2.84c-2.17,2.21-2.17,5.79-0.52,8.2c1.55,2.21,3.72,3.68,6.42,4.1c3.93,0.74,7.24-1.68,9.11-4.84
	c1.03-1.89,1.34-3.89,1.55-6c0.31-4.31,0.72-8.52,1.03-12.73c0.1-0.95,0.41-1.58,1.45-1.79C56.23,202.39,57.06,201.86,58.09,201.44z
	 M57.16,230.37c-0.21,0.42-0.52,0.74-0.72,1.16c-0.72,1.47-1.45,2.95-2.28,4.31c-1.97,3.16-4.76,5.47-8.69,5.47
	c-1.97,0-3.31,0.21-4.55,2.21c-2.17,3.26-5.69,3.47-9.21,2.42c-2.9-0.84-5.59-3.89-5.59-7.05c-0.1-2.84,1.03-5.26,2.79-7.47
	c0.93-1.16,0.93-1.37-0.52-2c-1.45-0.63-2.9-1.37-3.62-2.94c-0.41-0.84-0.72-1.68-1.14-2.53c-0.21-0.63-0.41-1.16-0.62-1.79
	c-0.1,0-0.21,0-0.31,0.11c-0.1,0.42-0.21,0.74-0.21,1.16c0.31,2.95,1.66,5.16,4.35,6.52c0.93,0.42,0.93,0.84,0.52,1.68
	c-0.83,1.47-1.86,2.94-2.38,4.63c-0.83,2.42-0.52,4.84,0.93,7.05c2.07,3.05,5.07,4.52,8.59,4.63c3.31,0.11,6.21-0.84,8.07-3.79
	c0.52-0.84,1.24-1.37,2.48-1.16c0.93,0.1,2.07,0,3-0.32c3.72-1.16,6-4,7.76-7.26C56.54,233.84,57.47,232.37,57.16,230.37z
	 M33.47,219.33c-0.41,0.32-0.52,0.42-0.62,0.53c-0.1,0.11-0.21,0.32-0.21,0.42c-0.41,2.42-0.41,4.73,1.14,6.73
	c1.76,2.31,4.04,3.89,6.93,4.63c4.35,1.05,7.76-0.42,10.86-3.16c2.07-1.79,2.48-4.42,2.79-7.05c0.1-0.74,0-1.58,0-2.42
	c-0.1-0.11-0.21-0.21-0.41-0.21c-1.14,6.84-4.14,11.78-11.69,11.04C36.36,229.32,33.36,225.74,33.47,219.33z"/>
<path class="st0" d="M187.84,439.07c1.24,0.21,2.28,0.42,3.41,0.42c4.86,0.21,9.62,0.42,14.49,0.53c2.79,0,5.59-0.21,8.38,0.63
	c5.59,1.79,10.87,4.1,13.97,9.68c1.14,2.1,1.66,4.31,0.83,6.63c-0.1,0.42,0,1.16,0.31,1.37c5.28,4.21,3.93,12.41,0.1,16.83
	c-2.17,2.52-4.76,3.79-7.97,3.89c-2.59,0.11-4.76-0.95-6.52-2.84c-1.24-1.26-1.35-1.26-2.48,0.11c-1.97,2.31-6.31,3.05-8.9,2.21
	c-2.9-0.84-5.38-2.21-7.35-4.52c-3.62-4.31-3.21-9.05-0.41-13.04c0.41-0.53,0.93-1.05,1.35-1.58c0.31,0.53,0.72,1.05,1.03,1.58
	c1.45,2.31,3.41,3.79,6.21,3.79c2.79,0,4.76-1.47,6.21-3.58c4.66-6.73-0.31-14.1-7.66-14.94c-3-0.32-6-1.16-9-1.79
	c-1.45-0.31-2.79-0.53-4.24-0.84c-0.31-0.11-0.62-0.21-0.72-0.42C188.67,441.81,188.25,440.54,187.84,439.07z M216.29,442.65
	c-0.1,0.11-0.21,0.32-0.21,0.42c0.21,0.21,0.41,0.42,0.62,0.53c1.14,0.74,2.28,1.47,3.42,2.21c4.14,2.84,6.21,6.63,5.28,11.78
	c-0.21,1.05,0,1.68,0.83,2.31c5.28,3.58,3.83,12.2-1.76,14.83c-3.62,1.68-7.35,0.11-10.35-2.95c-1.14-1.05-1.24-1.05-2.07,0.32
	c-1.14,2.1-2.69,3.58-5.17,4.1c-0.83,0.21-1.55,0.42-2.38,0.63c0,0.11,0,0.21,0,0.31c0.72,0.11,1.35,0.21,2.07,0.21
	c2.69-0.11,4.66-1.68,6.1-3.89c0.52-0.84,0.83-0.63,1.45-0.21c0.83,0.74,1.76,1.47,2.69,2.1c3.1,2.1,7.04,2.31,10.55-0.74
	c4.45-3.89,5.28-11.89,0.21-15.99c-0.31-0.31-0.52-0.95-0.41-1.47c0.1-1.89,0.31-3.79-0.41-5.57c-1.45-3.26-3.83-5.58-6.83-7.37
	C218.67,443.7,217.43,443.17,216.29,442.65z M202.84,444.33c0,0.11-0.1,0.21-0.1,0.42c1.24,0.42,2.48,0.74,3.72,1.16
	c2.07,0.74,4.14,1.58,5.59,3.47c2.79,3.47,2.9,7.15,1.35,11.15c-1.55,3.68-4.24,5.68-8.17,5.57c-0.83,0-1.76-0.21-2.79-0.31
	c0.31,0.31,0.41,0.53,0.52,0.63c1.03,0.95,2.38,0.74,3.62,0.84c2.28,0.31,4.14-0.63,5.69-2.1c2.59-2.42,4.04-5.47,3.93-9.26
	c-0.1-2.73-0.83-5.05-2.38-7.05C211.02,445.17,206.77,445.07,202.84,444.33z"/>
<path class="st0" d="M134.76,62.59c-1.55-0.11-2.79-0.11-3.93-0.21c-2.79-0.21-5.69,1.79-6.42,4.52c-0.93,3.79-0.21,7.26,2.79,9.89
	c2.28,1.89,4.86,2.52,7.86,1.89c3.41-0.74,5.69-3.37,8.28-5.26c2.69-1.89,5.28-4,7.97-5.89c0.21-0.21,0.72-0.21,0.93,0
	c1.14,0.53,2.17,1.16,3.41,1.89c-0.83,0.74-1.76,1.26-2.48,2c-3.93,4.21-7.97,8.31-11.8,12.62c-3.41,3.79-7.55,6.31-12.42,7.68
	c-3.1,0.95-6.21,1.16-9.42,0.11c-1.66-0.53-3-1.58-4.04-2.95c-0.62-0.95-1.35-1.26-2.59-1.16c-3.52,0.11-6.42-1.37-8.48-4.31
	c-2.9-4.1-4.14-8.42-1.86-13.36c1.55-3.37,4.24-5.05,7.76-5.36c1.66-0.21,1.66-0.42,1.45-2.1c-0.1-1.16,0.31-2.42,0.72-3.47
	c1.55-3.37,4.24-5.36,7.76-6.42c1.76-0.53,3.52-0.74,5.28-0.53c3.93,0.42,7.35,2.95,8.38,7.05
	C134.24,60.38,134.55,61.43,134.76,62.59z M117.89,55.75c-0.41,0.11-0.62,0-0.72,0.11c-2.79,1.79-4.24,5.36-3.31,8.73
	c0.31,0.95,0.21,1.47-0.93,1.47c-0.83,0-1.66,0.21-2.48,0.32c-3.31,0.84-6.62,3.47-7.24,7.26c-1.03,6,4.35,13.78,11.59,12.41
	c0.31-0.11,0.93,0.21,1.14,0.53c1.55,2.21,3.72,3.58,6.31,4c3.62,0.63,7.24-0.11,10.66-1.58c0.52-0.21,1.03-0.63,1.45-1.05
	c-0.1-0.11-0.1-0.21-0.21-0.32c-0.72,0.21-1.45,0.42-2.17,0.63c-2.79,0.53-5.48,2-8.59,1.16c-2.69-0.74-4.86-2-6.42-4.21
	c-0.62-0.95-1.24-1.16-2.28-0.84c-1.97,0.63-3.83,0.21-5.48-0.84c-2.17-1.26-3.41-3.16-4.14-5.58c-0.93-3.05,0.1-6.73,2.59-8.52
	c1.97-1.37,4.14-2,6.42-2.21c1.45-0.11,1.55-0.32,1.03-1.68c-0.93-2.84-0.52-5.36,1.14-7.78C116.86,57.12,117.27,56.59,117.89,55.75
	z M142.42,76.79c-0.1-0.11-0.21-0.21-0.31-0.42c-0.62,0.42-1.24,0.84-1.97,1.26c-2.07,1.05-4.04,2.42-6.21,2.95
	c-4.97,1.05-9.21-2.31-11.07-6.73c-1.55-3.89-0.72-7.36,2.17-9.99c0.41-0.42,0.93-0.74,1.34-1.16c0-0.11-0.1-0.21-0.1-0.32
	c-0.41,0.11-0.83,0.11-1.24,0.32c-2.38,1.16-3.93,3.16-4.45,5.68c-0.62,3.16,0.1,6.21,1.97,8.94c1.76,2.63,4.24,4.1,7.04,4.84
	c1.55,0.42,3.41,0.42,4.86-0.11c2.17-0.95,4.14-2.52,6.1-3.79C141.18,77.84,141.8,77.21,142.42,76.79z"/>
<path class="st0" d="M174.7,41.76c-1.03-0.42-2.07-0.84-3-1.16c-2.59-0.84-5.38,0.11-7.03,2.21c-2.59,3.16-2.28,9.57,1.03,12.2
	c2.9,2.31,6,3.05,9.42,1.79c2.79-1.05,5.48-2.52,8.28-3.79c2.07-0.95,4.14-1.89,6.21-2.84c0.83-0.42,1.55-0.21,2.17,0.42
	c0.72,0.74,1.55,1.26,2.38,1.89c-2.28,1.37-4.55,2.52-6.62,3.89c-2.79,1.89-5.48,3.89-8.17,6c-3.52,2.74-7.24,5.05-11.79,5.79
	c-1.66,0.32-3.42,0.74-5.07,0.84c-1.24,0.11-2.49-0.21-3.73-0.42c-2.48-0.53-4.86-1.47-6.52-3.47c-0.72-0.84-1.14-1.89-1.66-2.74
	c-0.21-0.32-0.62-0.74-0.93-0.74c-5.79-0.63-8.79-5.47-9.52-9.99c-0.72-4.63,0.31-8.63,4.04-11.47c2.17-1.68,4.66-2.31,7.45-1.47
	c0.62,0.21,1.03,0,1.14-0.74c0.41-4.73,3.31-7.26,7.45-8.52c4.35-1.37,9.83-0.53,12.93,3.47C174.7,35.13,175.42,38.82,174.7,41.76z
	 M169.53,66.38c-2.59,0-4.76,0.11-7.03,0c-1.45-0.11-2.9-0.53-4.24-1.05c-2.59-1.05-4.24-3.05-5.28-5.58
	c-0.31-0.74-0.83-1.05-1.66-1.05c-2.07,0.11-3.93-0.53-5.59-2c-1.45-1.26-2.07-2.95-2.69-4.73c-1.24-3.68,1.24-8.63,4.86-9.78
	c1.97-0.63,3.83-0.84,5.79-0.42c1.66,0.32,1.86,0,1.66-1.68c-0.21-2.42,0.21-4.63,2.07-6.31c0.62-0.63,1.45-1.05,2.07-1.68
	c-0.1-0.21-0.31-0.32-0.41-0.53c-1.24,0-2.07,0.84-2.9,1.68c-1.55,1.68-2.48,3.58-2.28,6c0,0.53,0.31,1.26-0.83,1.16
	c-1.24-0.11-2.48-0.32-3.72-0.11c-2.17,0.32-4.35,1.05-5.9,2.84c-2.38,2.84-3,6.1-1.86,9.78c1.24,4,4.35,7.15,8.79,7.47
	c0.41,0,1.14,0.42,1.34,0.84c1.66,3.47,4.45,5.26,8.17,6c2.59,0.53,5.17,0.32,7.76-0.11C168.28,67.01,168.7,66.69,169.53,66.38z
	 M178.84,57.01c-1.76,0.53-3.52,1.16-5.28,1.68c-3.41,1.05-6.42,0.32-9.11-2c-1.76-1.58-2.69-3.68-3.41-6
	c-1.04-3.37,0.41-7.47,3.31-9.36c0.73-0.42,1.45-0.95,2.07-1.37c0-0.11-0.1-0.21-0.1-0.32c-0.41,0-0.83-0.11-1.14,0
	c-1.03,0.53-2.28,0.95-3.1,1.68c-3.41,3.05-3.93,6.94-2.59,11.26c1.76,5.47,6.62,8.73,12.1,7.89
	C174.49,59.96,176.77,58.7,178.84,57.01z"/>
<path class="st0" d="M234.92,44.39c-3.72,1.37-7.45,2.74-11.07,4.21c-3.1,1.26-6.1,3.05-9.21,4.21c-6.31,2.31-12.73,2.52-18.83-0.63
	c-2.9-1.47-4.76-3.79-5.28-7.15c-0.1-0.32-0.52-0.74-0.93-0.95c-3.1-1.26-5.38-3.37-6.52-6.63c-2.07-5.89,0.21-13.15,5.59-15.67
	c2.48-1.05,4.86-1.16,7.24,0c0.93,0.42,1.45,0.42,1.76-0.74c0.93-3.26,3.31-5.15,6.31-6c3.83-1.05,7.66-0.53,11.07,1.68
	c2.17,1.47,3.31,3.47,4.24,6c0.73,2.21-0.1,4.1-0.41,6.21c-0.1,0.95-0.83,0.74-1.35,0.21c-1.45-1.26-3.1-2.1-5.17-2
	c-2.9,0.11-4.76,1.68-6,4.1c-1.14,2-1.14,4.31-0.83,6.52c0.41,2.84,2.28,4.73,4.76,6c3,1.58,6.11,1.26,9.21,0.21
	c2.07-0.63,4.35-1.05,6.42-1.58c1.76-0.42,3.52-0.74,5.17-1.16c0.93-0.21,1.55,0,2.17,0.84C233.68,42.81,234.3,43.55,234.92,44.39z
	 M207.5,52.81c0-0.11,0-0.21,0-0.42c-0.41-0.11-0.83-0.21-1.34-0.32c-2.38-0.63-4.97-0.95-7.24-1.89c-3.1-1.26-4.86-4-5.48-7.36
	c-0.21-0.84-0.62-1.26-1.55-1.47c-0.93-0.21-1.97-0.63-2.79-1.16c-3.31-2-4.97-6.94-3-11.26c1.76-3.79,6.62-5.68,10.55-4.1
	c2.69,1.16,2.59,1.05,3.21-1.79c0.41-2,1.24-3.89,3.21-4.94c0.72-0.42,1.45-0.95,2.07-1.47c0-0.11-0.1-0.21-0.1-0.32
	c-0.52,0.11-1.03,0.11-1.45,0.21c-2.69,1.16-4.45,3.05-4.97,6.1c-0.31,1.47-0.21,1.47-1.76,0.95c-2.38-0.74-4.86-1.16-7.24-0.32
	c-3.62,1.26-5.38,4.31-5.9,7.99c-0.62,4.73,1.86,9.89,7.14,11.57c0.41,0.11,0.93,0.63,1.04,0.95c0.52,2.95,2.38,4.94,4.66,6.52
	c2.69,1.79,5.9,2.52,9.21,2.52C206.36,52.91,206.88,52.81,207.5,52.81z M218.16,45.97c0-0.11,0-0.21,0-0.32
	c-7.24,1.68-12.83-0.11-14.59-7.99c-1.35-5.79,1.35-9.68,7.03-11.57c-0.62-0.21-1.14-0.42-1.66-0.32c-4.14,0.53-6.93,4.42-7.24,8.1
	c-0.41,3.89,0.31,7.47,3.21,10.41c2.17,2.21,4.55,3.58,7.66,3.26c1.55-0.11,3.1-0.53,4.66-0.84
	C217.33,46.5,217.74,46.18,218.16,45.97z"/>
<path class="st0" d="M149.97,421.08c0.62,0.21,1.24,0.53,1.97,0.74c3.83,1.05,7.55,2.21,11.38,3.16c4.34,1.16,8.9,1.47,12.93,3.79
	c4.34,2.52,8.17,5.57,10.24,10.41c1.14,2.74,1.45,5.47-0.1,8.2c-0.21,0.32-0.21,1.05,0,1.37c1.45,1.58,1.96,3.68,2.28,5.57
	c0.21,1.26-0.31,2.84-0.72,4.1c-1.35,3.68-3.62,6.42-7.14,8.1c-4.34,2.1-9.31,0.84-11.9-3.26c-1.04-1.58-0.93-1.47-2.59-0.53
	c-1.66,1.05-3.42,1.47-5.38,1.26c-4.86-0.63-8.28-3.47-10.24-7.78c-2.07-4.42-1.14-8.52,2.59-11.99c0.52-0.42,1.03-0.84,1.76-1.37
	c0.31,0.84,0.62,1.68,0.93,2.42c1.96,5.26,8.28,5.89,11.69,2.42c1.14-1.16,2.17-2.63,2.79-4.1c1.86-4.42-1.65-10.1-6.1-11.89
	c-3.83-1.58-7.55-3.26-11.28-4.84c-0.62-0.21-1.24-0.42-1.76-0.84c-0.41-0.32-0.72-0.95-0.83-1.47
	C150.18,423.61,150.07,422.56,149.97,421.08z M167.87,459.58c0.62,0.74,1.14,1.37,1.55,2c1.45,1.89,3.21,3.36,5.38,3.79
	c2.38,0.42,4.76,0.31,7.03-1.26c4.45-3.05,7.04-9.89,3.1-14.83c-0.72-0.95-0.62-1.58-0.21-2.42c1.03-2.21,0.83-4.52,0.1-6.73
	c-1.35-3.89-4.04-6.63-7.14-8.94c-0.31-0.21-0.73-0.31-1.04-0.42c-0.1,0.11-0.1,0.21-0.21,0.31c0.41,0.42,0.83,0.84,1.24,1.26
	c1.45,1.68,3,3.16,4.24,4.94c2.28,3.36,2.38,6.84,0.62,10.52c-0.21,0.31,0,1.16,0.31,1.47c3,3.47,3.31,7.05,0.83,10.73
	c-2.48,3.79-7.24,5.47-11.38,2.42c-1.35-1.05-2.38-2.42-3.52-3.79c-0.62-0.84-0.93-1.05-1.76-0.11c-2.07,2.42-4.66,3.47-7.76,3.05
	c-0.41,0-0.83,0-1.14,0c0,0.1-0.1,0.31-0.1,0.42c0.93,0.21,1.76,0.63,2.69,0.74C163.73,463.16,165.9,461.79,167.87,459.58z
	 M158.97,450.43c-0.1,0.11-0.1,0.21-0.21,0.31c0.41,0.42,0.93,0.84,1.35,1.26c1.97,1.37,6.42,1.47,9.21-0.63
	c4.35-3.26,6.21-8.52,4.76-13.67c-1.34-4.52-6.72-7.26-10.86-7.89c0.72,0.42,1.24,0.74,1.66,0.95c1.76,1.16,3.62,2.1,5.17,3.58
	c3.62,3.47,3.31,9.05,0.72,12.94c-2.48,3.89-7.24,5.37-10.97,3.36C159.59,450.43,159.28,450.43,158.97,450.43z"/>
<path class="st0" d="M276.72,45.13c-2.79,0.32-5.38,0.42-7.97,0.95c-3.52,0.63-7.04,1.58-10.55,2.21c-1.96,0.42-4.04,0.63-6.1,0.84
	c-4.04,0.32-7.86-0.74-11.48-2.31c-2.69-1.26-5.17-2.84-6.52-5.68c-0.62-1.26-0.93-2.73-1.03-4.21c-0.1-0.95-0.21-1.58-1.14-2.21
	c-2.28-1.47-3.72-3.68-4.55-6.52c-1.24-4.52,1.55-11.47,4.97-13.57c3-1.89,7.14-2.52,10.45-0.21c1.35,0.95,1.45,0.84,2.38-0.53
	c1.66-2.73,4.35-4,7.35-4.1c4.66-0.21,8.59,1.58,11.38,5.36c2.28,3.16,2.28,6.73,0.62,10.31c-0.83,1.89-0.93,1.89-2.38,0.32
	c-4.14-4.42-9.83-2.63-12.11,2.31c-3.1,6.94,1.97,12.73,7.86,13.15c3.93,0.32,7.97-0.11,12-0.11c1.35,0,2.69,0,3.93,0
	c0.31,0,0.83,0.21,1.03,0.53C275.58,42.71,276.1,43.87,276.72,45.13z M248.37,47.55c0-0.11,0.1-0.21,0.1-0.32
	c-0.31-0.11-0.52-0.32-0.83-0.42c-1.65-0.74-3.41-1.37-5.07-2.21c-4.04-2-6.21-5.15-6.1-9.78c0-0.95-0.41-1.47-1.35-1.89
	c-2.17-0.95-3.52-2.52-4.45-4.84c-0.93-2.31-0.52-4.52,0.41-6.52c1.14-2.52,2.9-4.31,5.69-4.84c2.69-0.53,5.07,0.42,7.35,1.89
	c1.45,0.95,1.76,0.84,2.28-0.74c0.62-2.21,1.86-3.89,3.93-4.94c0.83-0.42,1.76-0.74,2.9-1.16c-0.41-0.21-0.52-0.32-0.62-0.32
	c-3.21-0.21-6.31,2.63-6.93,5.15c-0.21,0.84-0.62,0.95-1.24,0.63c-1.14-0.53-2.17-1.26-3.42-1.68c-2.17-0.63-4.34-0.95-6.52,0.11
	c-2.9,1.47-4.66,3.79-5.38,7.05c-1.04,4.84,0.31,8.31,4.45,11.15c0.73,0.53,1.35,1.05,1.24,2.21c-0.1,1.68,0.52,3.26,1.45,4.73
	c1.55,2.52,3.93,4.1,6.42,5.26C244.44,46.81,246.3,47.76,248.37,47.55z M256.85,22.09c-0.62-0.32-0.83-0.63-1.14-0.63
	c-1.66,0.11-3.41-0.32-4.97,0.74c-4.04,2.52-5.59,6.31-5.38,10.94c0.21,3.58,1.86,6.31,4.55,8.42c3,2.42,6.62,2,10.24,1.58
	c-1.65-0.42-3.31-0.63-4.97-0.95c-3.31-0.63-5.69-2.52-6.93-5.68c-0.83-2.21-1.03-4.42-0.62-6.73c0.62-3.68,4.04-7.36,7.86-7.26
	C255.71,22.41,256.13,22.2,256.85,22.09z"/>
<path class="st0" d="M42.47,164.1c3.31-0.21,5.69,1.68,7.86,3.79c0.62,0.53,0.21,0.74-0.31,1.16c-1.35,0.84-3,1.68-3.93,2.84
	c-2.17,2.94-2.07,5.89,0.72,9.15c1.86,2.1,4.04,3.58,7.14,3.37c3-0.21,5.17-1.68,7.04-3.89c1.66-2,2.07-4.63,2.79-7.05
	c1.14-3.47,2.07-6.94,3.21-10.42c0.21-0.74,0.52-1.37,1.66-1.26c0.72,0.11,1.45-0.32,2.17-0.53c0.31-0.11,0.52,0,0.83,0
	c0,0.31,0,0.53,0,0.84c-0.93,3.47-1.45,6.94-1.97,10.41c-0.62,4.63-0.41,9.47-1.97,13.99c-1.97,5.57-4.76,10.52-9.93,13.57
	c-2.48,1.37-5.17,2.1-7.97,0.63c-0.31-0.21-1.03,0-1.34,0.32c-3,3.58-9.62,3.26-12.93,1.05c-2.38-1.58-4.45-3.37-5.69-6.1
	c-1.76-4.21-0.72-8.63,2.79-11.47c1.03-0.84,1.03-1.05,0.1-2.1c-2.38-2.95-2.69-6.31-1.24-9.78c1.24-3.05,3.1-5.68,6.21-7.15
	c1.45-0.74,3.1-1.16,4.66-1.68C42.36,163.89,42.47,164,42.47,164.1z M65.44,189.24c-0.1-0.11-0.21-0.21-0.41-0.32
	c-0.31,0.32-0.72,0.63-1.03,1.05c-1.03,1.37-1.97,2.74-3.21,4c-3.1,3.26-6.83,4.52-11.28,3.16c-0.93-0.31-1.66-0.21-2.28,0.74
	c-1.03,1.37-2.48,2.31-4.04,2.52c-4.14,0.74-7.45-0.84-9.73-4.42c-1.14-1.89-1.35-4.1-0.72-6.21c0.83-2.31,2.28-4.21,4.24-5.68
	c0.93-0.63,0.72-1.05-0.1-1.68c-2.38-1.58-3.83-3.68-3.72-6.73c0-0.74,0-1.47,0-2.21c-0.21,0-0.41,0-0.62-0.11
	c-0.21,0.95-0.62,1.89-0.62,2.84c0,3.05,1.34,5.37,3.83,7.15c-0.62,0.63-1.24,1.16-1.76,1.68c-3,3.16-4.45,6.63-2.48,10.94
	c1.45,3.26,4.24,5.05,7.35,5.79c3.21,0.74,6.52,0.32,9.11-2.52c0.31-0.31,1.03-0.31,1.66-0.31c1.76,0,3.52,0.53,5.07,0.21
	c3.31-0.84,6-3.05,8.07-5.89C63.78,191.98,64.61,190.61,65.44,189.24z M43.92,173.46c-0.1,0-0.21-0.11-0.21-0.11
	c-0.21,0.31-0.52,0.53-0.62,0.84c-1.66,3.05-1.24,6.1,0.62,8.84c1.66,2.31,3.83,3.79,6.62,4.73c3.41,1.16,6.52,0.21,9.42-1.47
	c2.48-1.37,3.41-4,4.24-6.52c0.31-1.16,0.52-2.31,0.83-3.47c-0.1,0-0.21-0.11-0.31-0.11c-0.1,0.32-0.31,0.53-0.41,0.84
	c-0.72,1.58-1.35,3.37-2.38,4.84c-0.93,1.26-2.07,2.52-3.41,3.26c-2.79,1.47-5.69,1.37-8.69,0.21c-3.31-1.26-6.1-4.31-5.9-8.31
	C43.61,175.88,43.81,174.72,43.92,173.46z"/>
<path class="st0" d="M261.2,478.42c-0.52,0.74-0.93,1.26-1.24,1.89c-1.35,2-3.31,2.74-5.48,3.58c-2.9,1.05-5.38-0.21-7.86-1.05
	c-2.48-0.84-4.55-2.84-5.79-5.26c-1.14-2.21-1.35-4.63-0.62-6.94c0.41-1.37,0.93-2.63,1.45-3.89c0.21,0,0.31,0,0.52-0.11
	c0.62,0.74,1.14,1.47,1.86,2.1c2.07,1.89,4.45,2.42,7.04,1.37c1.96-0.74,3.31-2.32,4.14-4.21c1.97-4.31,1.24-8.21-2.38-11.15
	c-2.07-1.68-4.55-2.42-7.14-2.31c-4.24,0.11-8.38,0.21-12.62,0.31c-0.52,0-1.24-0.42-1.66-0.84c-0.73-0.95-1.35-2.1-2.07-3.26
	c1.76-0.21,3.42-0.21,5.07-0.53c3.31-0.63,6.72-1.37,10.04-2c1.35-0.32,2.69-0.63,4.14-0.84c2.28-0.21,4.55-0.53,6.83-0.53
	c1.86,0.11,3.72,0.53,5.48,1.05c1.96,0.63,3.93,1.47,5.69,2.42c2.79,1.47,4.66,3.79,5.59,6.84c0,0.21,0.1,0.31,0.1,0.53
	c-0.52,2.21,0.72,3.47,2.38,4.63c2.79,1.89,4.24,7.57,3.21,10.84c-0.83,2.63-1.66,5.15-3.72,7.15c-3.21,2.95-7.14,3.58-11.28,1.68
	C262.44,479.47,261.92,478.94,261.2,478.42z M252.3,482.1c0,0.11,0,0.21,0.1,0.42c0.41,0,0.83,0,1.24,0c3-0.42,4.86-2.31,6.1-5.05
	c0.31-0.63,0.52-1.16,1.35-0.74c0.83,0.42,1.76,0.95,2.69,1.37c5.79,2.21,10.04-0.11,12-5.26c1.97-4.94,0.73-10.2-4.34-13.25
	c-0.41-0.21-0.62-0.84-0.73-1.37c-0.41-1.37-0.52-2.84-1.14-4.21c-1.45-3.16-4.14-5.05-7.14-6.42c-1.66-0.74-3.42-1.58-5.69-1.16
	c0.62,0.32,1.03,0.63,1.55,0.84c1.45,0.63,3,1.05,4.34,1.79c2.38,1.26,4.55,2.84,5.48,5.47c0.52,1.47,0.62,3.16,1.03,4.73
	c0.21,0.63,0.52,1.16,1.04,1.58c0.62,0.53,1.55,0.74,2.17,1.37c3.31,2.74,3.72,7.89,1.14,11.57c-1.03,1.47-2.28,2.63-4.04,3.16
	c-3,0.84-5.69,0-8.28-1.58c-1.55-0.95-1.76-0.84-2.28,0.84c-0.62,2.1-1.86,3.89-4.03,4.73C253.95,481.36,253.13,481.68,252.3,482.1z
	 M248.89,472c0.1,0.11,0.41,0.31,0.62,0.31c1.45-0.1,3.1,0.11,4.45-0.42c5.59-2.21,7.35-10.1,5.07-14.83
	c-1.55-3.26-3.83-5.89-7.66-6.42c-2.07-0.31-4.14-0.21-6.1,0.11c0.31,0.32,0.62,0.32,1.03,0.42c1.45,0.21,2.79,0.32,4.24,0.63
	c4.45,0.95,7.66,4.84,7.76,9.47c0,1.26-0.31,2.42-0.62,3.68c-0.52,2.21-1.55,4.1-3.62,5.16C252.4,470.84,250.64,471.37,248.89,472z"
	/>
<path class="st0" d="M89.44,363.44c0.83,0.95,1.45,1.79,2.17,2.42c3.62,2.95,7.14,6,10.97,8.73c4.55,3.26,8.48,7.05,10.86,12.31
	c1.45,3.26,2.38,6.63,1.76,10.31c-0.41,2.31-1.24,4.31-3.21,5.68c-0.31,0.21-0.41,0.95-0.41,1.37c0,1.26,0.21,2.52,0,3.79
	c-0.41,4-2.9,6.63-6.21,8.31c-1.86,0.95-4.14,1.58-6.21,1.79c-3.83,0.31-8.28-2.63-9.31-6.73c-0.21-0.74-0.31-1.58-0.62-2.31
	c-0.1-0.32-0.72-0.63-1.03-0.53c-2.79,0.63-5.28,0.11-7.55-1.79c-2.17-1.79-3.52-4-4.35-6.63c-1.14-3.79-0.93-7.26,1.45-10.52
	c1.55-2.11,3.83-3.05,6.21-3.68c0.83-0.21,1.24,0.11,1.03,1.05c-0.62,2.84,0,5.37,2.17,7.15c2.38,2,5.17,2.1,8.07,0.95
	c4.35-1.68,6.1-5.26,5.69-9.57c-0.31-2.42-1.45-4.52-3.1-6.31c-3.21-3.47-6.42-7.05-9.62-10.52c-0.62-0.63-0.62-1.16-0.21-1.89
	C88.61,365.75,88.92,364.81,89.44,363.44z M109.82,383.11c-0.1,0.11-0.31,0.11-0.41,0.21c0.52,1.37,1.03,2.74,1.55,4.1
	c2.07,4.94,1.97,10.1-2.59,13.99c-0.52,0.42-0.62,0.95-0.31,1.68c1.14,2.84,0.62,5.58-1.14,7.89c-1.76,2.42-4.45,3.58-7.24,3.58
	c-1.97,0-3.93-0.84-5.38-2.52c-1.66-1.89-2.28-4.21-2.79-6.63c-0.21-0.95-0.52-1.26-1.55-0.74c-2.59,1.47-5.28,1.37-7.86-0.21
	c-0.62-0.32-1.24-0.74-1.76-1.05c-0.1,0.1-0.1,0.21-0.21,0.31c0.31,0.42,0.62,0.95,1.03,1.26c2.17,1.68,4.55,2.73,7.45,1.58
	c1.66-0.63,1.66-0.53,2.07,1.26c0.52,2.21,1.45,4.31,3,5.89c1.97,1.89,4.35,3.05,7.04,2.42c1.66-0.31,3.31-1.26,4.86-2
	c3.62-1.89,5.59-6.84,4.35-10.73c-0.21-0.74-0.21-1.05,0.41-1.58c2.17-1.79,3.1-4.21,3.31-6.94c0.21-3.37-0.83-6.42-2.28-9.47
	C110.96,384.69,110.34,383.85,109.82,383.11z M97.2,376.17c0.1,0.21,0.21,0.42,0.41,0.63c1.35,1.79,2.9,3.36,3.93,5.26
	c0.83,1.47,1.66,3.36,1.55,5.05c-0.1,3.05-1.45,5.79-3.83,7.89c-3.52,3.16-9.42,3.89-12.73-0.42c-0.21-0.31-0.62-0.42-0.93-0.63
	c0,1.68,2.59,4.42,4.35,4.94c2.69,0.74,5.38,0.63,7.86-0.63c4.04-2.1,6.21-5.47,6.93-9.99c0.31-2.31-0.52-4.31-1.86-6.31
	C101.24,379.64,99.48,377.75,97.2,376.17z"/>
<path class="st0" d="M125.55,439.39c-6.62,2.31-12.52-0.53-14.9-6.94c-2.38-6.63,0.1-11.68,6.31-14.41c0.1,0.42,0.21,0.84,0.21,1.26
	c0,3.16,1.45,5.47,4.14,6.84c1.76,0.84,3.83,0.95,5.69,0.1c2.17-1.05,4.24-2.42,5.28-4.73c1.45-3.36,0.83-6.42-1.03-9.36
	c-1.55-2.52-4.14-3.68-6.42-5.37c-2.79-2.1-5.59-4.1-8.38-6.21c-0.21-0.21-0.41-0.74-0.41-1.05c0.1-1.16,0.41-2.31,0.62-3.68
	c1.14,0.74,2.28,1.47,3.41,2.1c2.79,1.47,5.59,2.84,8.38,4.21c4.24,2.1,8.79,3.47,12.42,6.73c3.41,3.05,6.21,6.63,7.45,11.15
	c0.93,3.26,0.83,6.42-1.45,9.15c-0.31,0.31-0.41,1.16-0.31,1.58c2.38,5.26,0,10.1-3.31,12.94c-1.97,1.68-4.14,2.95-6.83,3.26
	c-4.24,0.53-8.59-1.58-10.14-5.99C126.28,440.34,125.86,439.92,125.55,439.39z M126.28,437.07c0.52,1.05,1.03,2.1,1.66,3.05
	c1.97,3.26,4.66,5.26,8.59,4.94c1.86-0.11,3.41-0.95,4.97-2.1c3.83-2.74,5.9-7.79,3.62-12.41c-0.52-1.05-0.31-1.68,0.31-2.63
	c1.35-1.89,1.66-4.1,1.45-6.31c-0.31-3.16-1.76-5.89-3.52-8.42c-0.72-1.05-1.66-2-2.48-2.94c-0.1,0.1-0.31,0.21-0.41,0.21
	c0.1,0.32,0.1,0.74,0.31,0.95c1.03,1.68,2.38,3.26,3.1,5.05c0.83,1.79,1.66,3.89,1.55,5.79c0,2.1-0.83,4.31-2.28,6
	c-0.62,0.63-0.52,1.16-0.1,1.89c1.55,2.63,1.76,5.26,0.41,7.99c-2.38,4.73-8.48,7.15-12.93,3.05c-1.45-1.37-2.38-3.36-3.21-5.26
	c-0.52-1.05-0.93-0.95-1.66-0.31c-2.59,2.1-5.38,2.63-8.38,1.16c-0.31-0.21-0.83-0.1-1.45-0.31
	C117.9,438.86,121.41,440.34,126.28,437.07z M128.35,406.67c-0.1,0.11-0.21,0.32-0.31,0.42c0.31,0.31,0.62,0.63,0.93,0.84
	c2.07,1.68,4.35,3.26,5.28,6c0.52,1.47,1.14,3.05,0.93,4.42c-0.31,1.89-1.14,3.79-2.07,5.47c-2.48,4.21-8.48,6.1-12.52,2.84
	c-0.31-0.21-0.72-0.32-1.24-0.53c1.14,2.94,4.97,4.42,7.86,3.79c5.9-1.26,10.14-6.52,9.62-13.04c0-0.63-0.21-1.26-0.41-2
	c-0.62-2.31-2.28-4-4.04-5.37C131.14,408.46,129.69,407.62,128.35,406.67z"/>
<path class="st0" d="M99.79,91.52c-1.66,0.21-3,0.32-4.24,0.53c-3.1,0.63-5.48,4-5.07,7.36c0.41,3.37,1.86,6.21,5.07,7.89
	c3.52,1.79,8.07,0.84,11.07-2.42c1.97-2.1,3.72-4.42,5.69-6.63c1.45-1.68,3-3.47,4.55-5.05c0.31-0.32,0.93-0.53,1.35-0.42
	c0.93,0.11,1.97,0.42,2.79,0.74c0.83,0.32,0.31,0.74,0.1,1.16c-1.45,2-3.1,4-4.35,6.1c-2.07,3.37-3.93,6.94-5.9,10.41
	c-1.97,3.37-4.45,6.31-7.76,8.31c-2.17,1.37-4.55,2.95-6.93,3.58c-3.41,0.95-7.04,1.16-9.93-1.89c-0.52-0.63-1.14-1.05-2.07-0.63
	c-5.17,2.31-10.76-2.1-12.73-5.79c-1.03-2-1.86-4.1-1.86-6.42c0-4.63,2.79-8.42,7.04-9.57c1.55-0.42,1.55-0.42,1.03-2.1
	c-0.72-2.21-0.31-4.52,0.72-6.42c2.07-3.68,5.28-5.89,9.42-6.73c4.24-0.84,7.66,0.53,10.14,4.1C98.55,88.78,99.06,90.15,99.79,91.52
	z M104.55,116.45c-0.1-0.11-0.1-0.21-0.21-0.21c-0.52,0.21-1.03,0.42-1.45,0.74c-2.48,1.58-5.07,2.74-7.97,3.16
	c-3.1,0.42-5.69-0.74-7.97-2.95c-0.62-0.63-1.14-0.74-2.07-0.32c-1.03,0.53-2.38,1.05-3.52,0.95c-1.45-0.11-2.9-0.74-4.24-1.37
	c-3.1-1.68-4.86-6-3.93-9.47c1.03-3.79,3.83-5.36,7.14-6.31c1.45-0.42,1.76-0.84,0.93-2.1c-1.03-1.68-1.45-3.47-1.03-5.36
	c0.31-1.47,0.83-2.84,1.35-4.31c-0.21,0.11-0.41,0.21-0.52,0.32c-2.17,2-3.21,5.79-1.35,9.26c0.62,1.05,0,1.26-0.72,1.47
	c-0.72,0.21-1.55,0.42-2.17,0.84c-2.69,1.37-4.76,3.37-5.48,6.42c-1.55,6.52,6.1,15.15,13.35,11.89c0.83-0.32,1.34-0.21,1.97,0.42
	c1.45,1.37,3.21,2.31,5.28,2.42c4.55,0.21,8.48-1.58,12-4.31C104.13,117.08,104.34,116.76,104.55,116.45z M91.61,93.31
	c-0.1-0.11-0.21-0.21-0.31-0.21c-2.38,1.16-3.72,3.26-4.14,5.79c-0.62,3.16,0.72,6,2.59,8.52c1.76,2.42,4.14,3.89,7.04,4.31
	c1.66,0.21,3.52,0.32,5.07-0.21c3.1-1.05,5.07-3.47,7.04-6.1c0.41-0.63,0.83-1.16,1.24-1.79c-0.1-0.11-0.21-0.21-0.31-0.32
	c-0.83,0.95-1.76,1.89-2.59,2.84c-1.86,2-4.04,3.68-6.83,3.89c-4.55,0.42-7.97-1.58-10.24-5.47c-1.76-2.84-1.97-5.89-0.1-8.84
	C90.48,94.78,90.99,94.04,91.61,93.31z"/>
<path class="st0" d="M311.9,440.65c0.93-0.53,1.76-0.84,2.59-1.26c4.35-2.31,8.17-5.26,12-8.31c6-4.84,12.62-6.94,20.18-5.99
	c3.72,0.42,6.62,2.31,8.17,5.99c0.21,0.53,0.83,1.05,1.24,1.16c4.55,0.53,7.24,3.26,8.69,7.47c1.35,3.79,1.35,7.47-0.72,11.04
	c-1.35,2.21-3.1,3.58-5.59,4.42c-1.55,0.53-2.9,0.42-4.35,0c-0.62-0.21-1.14-0.11-1.24,0.84c-0.21,2.63-1.35,4.84-3.41,6.42
	c-4.04,3.05-8.59,3.47-13.14,1.58c-3.72-1.47-6-4.52-5.9-10.2c0-0.53,0.1-1.16,0.21-1.89c0.72,0.42,1.24,0.63,1.65,0.95
	c3.21,1.79,7.45,0.42,9.21-2.84c1.97-3.79,1.35-9.15-2.59-11.89c-2.69-1.89-5.69-2.21-8.69-1.05c-2.48,0.95-4.86,2.31-7.24,3.47
	c-2.17,1.05-4.45,2-6.73,2.95c-0.21,0.11-0.52,0.11-0.62,0C314.28,442.55,313.14,441.7,311.9,440.65z M336,427.5
	c2.28,0,4.24,0,6.21,0c4.66,0.11,8.17,2,10.04,6.52c0.31,0.74,0.83,1.26,1.96,1.05c0.93-0.21,2.17,0,3,0.42
	c3.52,1.79,5.38,4.73,5.28,8.84c-0.1,2.95-2.07,6.1-4.86,7.05c-2.07,0.74-4.24,0.84-6.31,0.42c-0.93-0.11-1.65,0-1.45,1.16
	c0.72,3.47-0.62,6-3.1,8.2c-0.31,0.21-0.52,0.53-0.72,0.84c0.1,0.11,0.21,0.21,0.31,0.42c0.93-0.63,1.97-1.16,2.69-2
	c1.66-1.68,2.38-3.79,2.28-6.1c-0.1-0.84,0.1-1.26,1.04-1.05c0.93,0.21,1.86,0.11,2.79,0.11c2.79-0.21,5.28-1.16,7.04-3.36
	c1.45-1.89,1.86-4,1.86-6.42c0-5.05-3.83-9.68-8.8-10.1c-1.24-0.11-1.65-0.63-2.07-1.47c-0.93-2-2.48-3.47-4.45-4.42
	c-3.83-1.79-7.86-2-12-0.74C336.63,426.98,336.42,427.19,336,427.5z M326.18,436.44c0.1,0.21,0.1,0.32,0.21,0.53
	c0.62-0.21,1.14-0.42,1.76-0.63c2.28-0.84,4.55-1.79,7.14-1.58c1.86,0.11,3.41,0.74,4.86,1.89c2.07,1.58,3.1,3.68,4.04,6.1
	c1.24,3.37-0.41,8.63-3.83,10.2c-0.62,0.21-1.03,0.74-1.76,1.16c2.38,0.74,5.8-2.1,6.73-4.21c1.86-4.52,0.93-10.42-2.79-13.57
	c-3-2.52-6.21-4.1-10.14-2.52C330.21,434.55,328.14,435.5,326.18,436.44z"/>
<path class="st0" d="M433.78,331.88c0.41-1.68,0.83-3.05,1.03-4.42c0.52-3.68,0.93-7.47,1.45-11.26c0.62-4.73,1.03-9.57,3.52-13.89
	c2.28-3.89,4.86-7.36,9-9.26c1.86-0.84,3.72-1.47,5.79-0.42c1.03,0.53,2.07,0.42,3.1-0.53c3.21-2.63,8.07-2.84,11.9-0.63
	c2.9,1.68,5.17,3.89,6.31,7.26c1.24,3.68-0.1,8.42-3.21,10.52c-0.93,0.63-1.03,1.05-0.21,1.89c2.48,2.74,2.59,5.99,1.66,9.36
	c-1.14,3.89-3.72,6.73-7.35,8.42c-4.45,2-8.48,0.32-11.79-3.16c-0.62-0.63-0.1-0.95,0.52-1.16c2.07-0.84,3.62-2.1,4.66-4.21
	c1.03-2.21,0.62-4.31-0.52-6.31c-1.14-2-2.79-3.47-4.86-4.21c-2.9-1.05-5.69-0.63-8.28,1.37c-2.28,1.68-3.41,4-4.14,6.63
	c-1.14,3.68-2.17,7.36-3.31,11.04c-0.41,1.37-1.03,2.52-2.9,2.31C435.44,331.15,434.71,331.67,433.78,331.88z M439.99,304.32
	c0.21,0.11,0.31,0.21,0.52,0.31c0.31-0.31,0.62-0.63,0.93-0.95c1.66-2.1,3.21-4.42,5.59-5.89c2.69-1.68,5.38-2.21,8.38-1.26
	c1.04,0.32,1.86,0.21,2.79-0.74s2.17-1.89,3.52-2.21c2.17-0.63,4.35-0.42,6.52,0.74c3.42,1.79,5.9,6.1,4.04,10.41
	c-0.93,2-2.17,3.47-3.83,4.84c-0.93,0.74-0.93,1.05-0.1,1.68c2.38,1.58,3.72,3.79,3.83,6.73c0,0.63,0.1,1.26,0.21,2.21
	c1.03-1.58,1.03-2.84,0.73-4.31c-0.41-2-1.55-3.47-3-4.73c-0.62-0.53-0.52-0.95,0-1.47c1.03-1.16,2.17-2.31,3.1-3.58
	c1.66-2.42,1.97-5.05,0.93-7.78c-2.69-6.63-12.21-9.15-16.87-3.68c-0.21,0.31-1.03,0.42-1.35,0.31c-2.59-1.05-5.07-0.63-7.45,0.53
	c-2.28,1.16-4.24,2.95-5.8,4.94C441.54,301.69,440.82,303.06,439.99,304.32z M461.51,320.42c0.21-0.21,0.52-0.53,0.72-0.84
	c1.35-2.21,1.45-4.63,0.52-6.84c-3-7.26-11.8-9.47-17.69-4.94c-2.79,2.21-3.62,5.58-4.34,8.94c-0.1,0.21,0,0.53,0,0.74
	c0.41-0.32,0.52-0.63,0.62-0.95c0.93-1.89,1.76-3.89,3-5.68c1.76-2.52,4.45-3.58,7.35-3.58c1.55,0,3.21,0.63,4.76,1.26
	c2.69,1.05,4.66,3.05,5.07,5.99C461.72,316.52,461.51,318.42,461.51,320.42z"/>
<path class="st0" d="M354.42,425.92c-1.55-0.74-2.9-1.26-4.35-2c1.14-0.95,2.17-1.58,3-2.52c3.1-3.26,6.21-6.42,9.11-9.89
	c2.79-3.36,6-5.99,9.83-7.99c1.45-0.74,3.21-1.05,4.76-1.68c2.38-0.84,4.76-0.95,7.14-0.53c2.59,0.42,4.66,1.68,6.1,4
	c0.31,0.42,1.03,0.84,1.55,0.74c5.07-0.53,9.11,2.63,10.87,6.94c1.14,2.53,1.65,5.16,1.14,7.99c-0.62,3.26-2.69,6.73-6.62,7.57
	c-1.03,0.21-2.07,0.31-3,0.53c-0.31,0.11-0.83,0.53-0.72,0.84c0.62,4.94-2.07,7.89-5.9,10.2c-4.14,2.63-10.86,1.68-13.97-1.89
	c-1.65-1.89-2.07-4.21-2.59-6.52c-0.21-0.74,0.31-0.74,0.93-0.63c3.62,0.95,6.62,0.21,8.59-2.84c1.66-2.42,1.45-5.16,0.41-7.89
	c-0.73-2-1.97-3.58-3.83-4.52c-2.17-1.16-4.66-1.68-7.04-0.74c-1.76,0.63-3.41,1.68-4.86,2.74c-3.42,2.42-6.73,5.05-10.14,7.57
	C354.63,425.71,354.53,425.92,354.42,425.92z M370.98,405.73c0.1,0.11,0.1,0.21,0.21,0.32c0.83-0.21,1.76-0.53,2.59-0.74
	c2.69-0.63,5.28-1.68,8.17-0.84c2.59,0.74,4.76,2,6.31,4.31c0.52,0.84,1.14,0.84,1.96,0.74c1.45-0.11,3-0.21,4.35,0.11
	c2.79,0.84,4.45,2.94,5.28,5.79c0.93,2.84,0.62,5.47-1.35,7.89c-1.97,2.42-4.76,2.94-7.55,3.26c-1.35,0.11-1.45,0.21-1.14,1.58
	c0.31,1.26,0.83,2.74,0.52,3.89c-0.41,1.68-1.45,3.16-2.17,4.73c-0.21,0.31-0.41,0.63-0.73,1.16c3.1-1.05,4.86-5.36,4.14-7.99
	c-0.52-2.1-0.52-2.1,1.55-2.21c2.69-0.21,4.97-1.37,6.73-3.37c0.93-1.05,1.65-2.52,1.86-4c0.62-3.58-0.31-6.73-2.79-9.47
	c-2.28-2.52-4.97-3.58-8.28-3.16c-0.93,0.11-1.35-0.1-1.86-0.74c-1.24-1.68-2.79-2.95-4.86-3.47c-3.93-1.05-7.76-0.31-11.48,1.16
	C372.12,404.99,371.6,405.41,370.98,405.73z M362.7,417.72c1.86-1.16,3.83-2.21,5.69-3.37c2.28-1.47,4.86-1.47,7.35-0.84
	c2.59,0.63,4.35,2.53,5.8,4.63c2.38,3.47,2.48,8.31-0.83,11.47c-0.62,0.53-1.14,1.05-1.76,1.58c0,0.11,0.1,0.21,0.1,0.32
	c0.41-0.11,0.93-0.11,1.35-0.32c1.03-0.74,2.07-1.58,2.9-2.42c2.28-2.53,1.96-5.68,1.24-8.42c-1.14-4.42-4.14-7.37-8.59-8.52
	c-0.93-0.21-1.86-0.53-2.79-0.42C368.7,411.83,365.7,414.67,362.7,417.72z"/>
<path class="st0" d="M286.96,464.32c1.55,0.74,2.9,1.58,4.34,2.1c3,1.05,6.21-0.74,7.55-3.37c1.35-2.52,1.86-5.15,0.83-7.99
	c-0.93-2.74-2.9-4.31-5.48-5.37c-2.9-1.26-5.69-0.42-8.59,0.32c-3.62,0.95-7.35,1.68-10.97,2.42c-0.31,0.11-0.93-0.21-1.14-0.53
	c-0.83-0.84-1.55-1.79-2.59-2.84c1.03-0.31,1.96-0.74,3-0.95c4.14-1.05,7.97-3.05,11.8-4.84c3.31-1.58,6.62-3.16,10.45-3.58
	c3.52-0.42,6.93-0.21,10.35,0.84c2.9,0.84,5.38,2.21,7.04,4.84c0.41,0.74,1.03,1.58,1.03,2.31c-0.1,1.68,0.93,2.21,2.07,2.74
	c3.62,1.47,5.48,4.42,6.11,8.2c0.83,5.16-0.31,9.78-4.76,12.83c-2.69,1.89-5.69,2.42-8.69,0.63c-0.93-0.53-1.35-0.11-1.55,0.84
	c-0.72,2.74-2.59,4.52-4.86,5.47c-2.69,1.16-5.59,1.37-8.48,0.63c-2.69-0.74-4.97-2.1-6.62-4.31
	C285.72,471.89,285.41,466.95,286.96,464.32z M297.83,440.97c0,0.1,0,0.31,0,0.42c1.35,0.21,2.59,0.53,3.93,0.74
	c4.86,0.74,9,3.37,10.14,8.73c0.1,0.63,0.93,1.47,1.45,1.58c2.28,0.42,4.04,1.58,5.17,3.47c1.55,2.42,1.86,5.16,0.93,7.99
	c-0.52,1.58-1.35,2.95-2.69,3.89c-3,2.21-6.31,1.79-9.52,0.53c-1.24-0.53-1.35-0.53-1.55,0.95c-0.41,3.05-1.76,5.58-4.55,7.05
	c-0.41,0.21-0.72,0.53-1.03,0.74c0.1,0.11,0.21,0.21,0.31,0.32c4.04-0.84,6-3.68,6.62-7.68c0.93,0.32,1.66,0.53,2.38,0.74
	c2.69,0.63,5.28,0.84,7.76-0.74c4.04-2.73,4.97-6.94,4.04-11.25c-0.73-3.68-3-6.21-6.62-7.36c-0.52-0.21-1.03-0.63-1.35-1.05
	c-0.72-1.37-1.03-2.95-1.96-4.1c-3-3.79-7.35-4.84-11.9-5.05C298.96,440.76,298.34,440.97,297.83,440.97z M294.82,467.69
	c1.86,0.74,4.45-0.11,6-1.79c4.34-4.42,4.24-12.41-1.03-17.04c-1.55-1.37-3.1-2.42-5.17-2.42c-1.76,0-3.52,0.32-5.28,0.63
	c-0.83,0.11-1.55,0.42-2.38,0.74c0,0.1,0.1,0.31,0.1,0.42c0.52-0.11,1.14-0.11,1.66-0.21c2.69-0.53,5.38-0.53,7.76,0.84
	c3.93,2.21,5.48,5.68,5.38,10.1c-0.1,3.58-1.66,6.21-4.86,7.68C296.38,466.95,295.76,467.26,294.82,467.69z"/>
<path class="st0" d="M384.12,399.52c1.14-1.47,2.28-2.74,3.1-4.21c1.97-3.16,3.93-6.31,5.69-9.47c2.59-4.73,5.48-8.94,10.04-11.89
	c2.9-1.89,5.9-3.16,9.21-3.68c2.59-0.42,4.86,0.53,6.73,2.21c0.83,0.74,1.65,1.16,2.79,0.74c3.62-1.26,6.62,0,9.31,2.31
	c3.52,3.05,6,8.31,4.35,13.25c-1.14,3.47-3.52,5.58-6.93,6.42c-0.93,0.21-1.14,0.63-0.83,1.37c1.14,3.05,0.52,5.89-1.35,8.42
	c-3.31,4.63-7.97,6.21-13.35,5.26c-2.48-0.42-4.45-2.21-5.69-4.52c-0.41-0.74-0.73-1.58-1.14-2.42c-0.41-0.84-0.31-1.37,0.83-1.26
	c2.17,0.21,4.14-0.31,5.69-1.79c2.69-2.53,3.1-6.52,0.93-10.1c-2.79-4.84-8.59-5.58-12.83-2.63c-2.59,1.68-4.14,4.42-6.21,6.63
	c-1.86,1.89-3.52,3.89-5.28,5.89c-0.52,0.63-0.93,0.53-1.66,0.31C386.5,399.84,385.36,399.73,384.12,399.52z M423.85,404.89
	c0.1,0,0.21,0.11,0.31,0.11c1.24-0.95,1.96-2.42,2.28-3.89c0.41-1.89,0.21-3.89-0.83-5.58c-0.31-0.53-0.41-0.84,0.31-1.16
	c1.24-0.42,2.38-0.84,3.52-1.47c3-1.79,4.76-4.31,4.76-7.89c0-3.05-1.45-5.57-3.52-7.68c-2.79-2.74-6.11-3.79-9.73-2.31
	c-1.03,0.42-1.55,0.21-2.28-0.42c-1.24-1.16-2.69-1.89-4.35-2.1c-4.76-0.53-8.79,1.16-12.52,4c-0.41,0.32-0.62,0.74-0.93,1.05
	c1.96-0.74,3.62-1.79,5.38-2.42c1.76-0.63,3.62-1.26,5.48-1.26c2.69-0.1,5.07,1.16,7.04,3.05c0.62,0.53,1.14,0.53,1.76,0.1
	c1.76-1.05,3.62-1.16,5.48-0.63c2.69,0.74,4.45,2.63,5.69,5.15c1.55,3.26,1.03,6.1-1.24,8.73c-1.55,1.79-3.62,2.63-5.8,3.37
	c-1.24,0.42-1.35,0.74-0.72,1.79c1.55,2.63,1.86,5.37,0.41,8.2C424.06,403.94,423.95,404.36,423.85,404.89z M413.61,400.57
	c0.1,0.11,0.1,0.21,0.21,0.31c0.41-0.21,0.93-0.31,1.35-0.63c2.69-2.1,3.93-6.31,2.69-9.47c-2.07-5.47-6-8.84-12.21-8.62
	c-0.93,0-1.96,0.21-2.9,0.63c-2.59,1.16-4.45,3.26-6.1,5.47c-0.41,0.63-0.83,1.16-1.35,1.79c0.1,0.11,0.21,0.11,0.21,0.21
	c1.55-1.37,3-2.84,4.55-4.21c2.28-2,5.07-2.73,7.97-2.1c2.48,0.53,4.66,2,6.31,4.1c2.48,3.16,2.9,7.26,0.73,10.52
	C414.74,399.21,414.12,399.84,413.61,400.57z"/>
<path class="st0" d="M447.03,291.8c0-4,0.1-7.47,0-11.04c-0.1-2.84-0.73-5.68-1.03-8.63c-0.31-2.42-0.21-4.94,0.31-7.36
	c0.62-3.26,1.66-6.31,3.31-9.15c1.66-2.95,3.93-5.26,7.14-6.42c1.14-0.42,2.48-0.21,3.72-0.11c0.83,0,1.35-0.21,1.76-0.84
	c2.48-3.36,5.79-4.42,9.83-3.89c3.72,0.53,6.73,2.1,9,5.05c2.69,3.58,2.79,8.52-0.31,12.1c-0.73,0.84-0.62,1.37,0.31,2
	c1.66,1.05,2.48,2.63,3,4.52c1.66,6.42-2.17,14.1-8.69,15.67c-2.69,0.63-5.17-0.21-7.45-1.47c-0.21-0.1-0.41-0.21-0.62-0.42
	c-0.31-0.21-0.52-0.42-0.83-0.74c0.21-0.31,0.52-0.63,0.83-0.84c1.35-1.05,2.59-2.21,3.21-3.89c1.14-3.05,0.21-5.47-1.86-7.68
	c-1.76-1.79-4.04-2.84-6.62-2.84c-3.62,0-6,2.1-7.76,5.05c-1.24,2.1-1.45,4.42-1.55,6.84c-0.1,3.47-0.52,6.94-0.83,10.41
	c-0.1,0.95-0.41,1.89-1.55,2.21C449.1,290.54,448.27,291.17,447.03,291.8z M447.54,263.3c0.21,0.11,0.41,0.21,0.62,0.31
	c0.41-0.84,0.93-1.58,1.35-2.42c1.14-2.52,2.48-4.84,4.66-6.63c2.07-1.58,4.45-2.31,6.93-2c1.35,0.21,1.96-0.21,2.48-1.16
	c1.14-2.21,2.9-3.37,5.17-3.79c5.9-1.16,12.1,3.89,10.04,10.31c-0.52,1.68-1.66,3.16-2.48,4.73c-0.41,0.74-0.83,1.16,0.31,1.68
	c2.59,1.16,4.55,3.05,5.28,6c0.1,0.53,0.31,1.05,0.62,1.89c0.62-1.26,0.52-2.21,0.21-3.26c-0.72-2.31-2.17-4-4.24-5.15
	c-0.62-0.31-0.83-0.63-0.31-1.47c0.93-1.47,1.96-2.95,2.38-4.63c1.65-5.89-2.38-10.31-7.35-11.47c-4.24-1.05-8.07,0-10.76,4
	c-0.41,0.63-0.93,0.84-1.66,0.74c-1.76-0.21-3.31,0.11-4.86,0.95c-2.59,1.26-4.45,3.36-5.8,5.79
	C448.99,259.3,448.37,261.4,447.54,263.3z M471.76,274.24c0.21,0,0.41,0,0.52,0.11c0.21-0.95,0.62-1.89,0.62-2.84
	c-0.21-6-5.17-8.94-9.62-9.57c-1.86-0.32-3.83-0.11-5.59,0.74c-2.17,1.05-4.24,2.31-5.48,4.63c-1.35,2.63-1.35,5.47-1.45,8.31
	c0,0.11,0.1,0.31,0.31,0.53c0.1-0.42,0.21-0.63,0.31-0.84c0.62-2,1.04-4.1,1.76-6.1c0.93-2.63,3.1-4.21,5.59-4.94
	c1.65-0.53,3.72-0.31,5.48-0.11c2.69,0.32,4.76,1.68,6.21,4C471.65,270.03,472.07,272.03,471.76,274.24z"/>
<path class="st0" d="M466.58,167.05c5.59,1.37,8.17,5.26,8.38,10.83c0.1,4.1-1.03,7.79-4.35,10.31c-1.34,1.05-3,1.79-4.76,1.79
	c-1.14,0-2.28,0-3.31-0.1c-0.41,0-0.73-0.21-1.14-0.42c0.1-0.42,0.21-0.84,0.41-1.16c2.07-2.84,1.76-6.94-0.62-9.36
	c-2.59-2.63-7.86-3.05-10.97-1.05c-4.04,2.63-5.07,8.21-3.31,12.62c1.55,4,2.79,8.1,4.14,12.2c0.1,0.42-0.1,1.05-0.31,1.47
	c-0.72,0.95-1.55,1.89-2.48,2.94c-0.31-0.74-0.62-1.47-0.83-2.21c-1.76-4.84-4.35-9.15-7.04-13.46c-3.52-5.58-4.97-11.47-4.24-18.09
	c0.31-2.95,1.14-5.58,2.9-7.89c1.14-1.47,2.79-2.1,4.45-2.84c0.41-0.21,0.93-0.63,1.03-1.16c1.03-3.58,3.1-6.1,6.62-7.57
	c3.72-1.47,7.24-1.37,10.76,0.31c2.48,1.26,4.24,3.26,5.07,6.1c0.52,1.68,0.73,3.36,0,5.05
	C466.58,165.99,466.58,166.52,466.58,167.05z M472.48,174.83c0.1-0.11,0.21-0.11,0.41-0.21c-0.21-0.53-0.31-1.26-0.52-1.68
	c-1.45-2.31-3.31-4-6.1-4c-1.55,0-1.35-0.11-1.24-1.58c0.1-2.1,0.52-4.31-0.1-6.21c-1.24-4.31-4.04-5.89-7.97-6.42
	c-5.07-0.53-10.66,3.05-11.28,8.42c0,0.42-0.62,0.84-1.03,1.16c-0.73,0.42-1.55,0.74-2.28,1.26c-2.48,1.89-3.93,4.31-4.55,7.47
	c-0.52,2.42-0.62,4.84-0.31,7.26c0,0.42,0.21,0.74,0.31,1.16c0.41-1.68,0.52-3.26,0.62-4.94c0.31-4,1.45-7.47,5.07-9.68
	c0.93-0.53,1.96-0.84,2.9-1.47c0.41-0.21,0.73-0.74,0.83-1.16c0.31-2.74,1.35-4.94,3.83-6.42c3.31-2,7.45-1.79,10.35,0.74
	c2.69,2.31,3,6,2.07,9.78c-0.41,1.58-0.31,1.89,1.45,1.89c2.69,0,4.86,1.05,6.52,3.26C471.65,173.78,472.07,174.3,472.48,174.83z
	 M445.37,191.56c0.1,0,0.21-0.11,0.31-0.11c-0.31-2-0.62-4-0.93-6.1c-0.52-3.05,0.83-5.47,2.69-7.57c1.65-1.79,3.93-2.42,6.21-3.16
	c2.9-0.84,8.38,1.37,9.31,4.94c0.1,0.53,0.62,1.05,0.93,1.58c0.1,0,0.21-0.11,0.31-0.11c0-0.42,0.1-0.74,0.1-1.16
	c-0.31-1.79-1.14-3.26-2.38-4.42c-1.96-1.89-4.24-2.63-7.03-2.63c-2.79,0-5.17,0.74-7.24,2.31c-3.62,2.94-5.28,6.84-3.93,11.57
	C444.13,188.4,444.75,189.98,445.37,191.56z"/>
<path class="st0" d="M452.1,249.41c-0.1-0.31-0.31-0.63-0.31-0.95c-0.52-5.57-2.38-10.83-4.34-16.09c-1.66-4.63-2.28-9.36-1.55-14.1
	c0.62-4.31,1.86-8.52,5.59-11.47c1.35-1.16,2.9-1.79,4.76-1.89c0.52,0,1.24-0.42,1.45-0.84c2.48-5.05,6.62-6.63,11.79-6.1
	c4.14,0.42,7.45,2.21,9.31,5.99c1.45,2.84,1.45,5.89-0.1,8.73c-0.62,1.05-0.31,1.68,0.62,2c3.83,1.37,5.69,6.94,5.07,10.62
	c-0.52,3.05-1.35,5.79-3.52,7.99c-3.62,3.68-7.86,3.58-11.9,1.79c-0.73-0.31-0.31-0.74,0-1.16c0.72-0.84,1.55-1.68,1.96-2.63
	c1.97-4.21-0.52-8.73-5.17-10.1c-7.45-2.21-11.9,4.21-11.69,9.78c0.1,1.68,0.41,3.37,0.62,5.05c0.41,3.26,0.83,6.63,1.14,9.89
	c0,0.31-0.1,0.84-0.41,1.05C454.37,247.83,453.23,248.57,452.1,249.41z M482.41,222.59c0.1,0,0.31-0.11,0.41-0.11
	c0-0.42,0-0.84-0.1-1.16c-1.03-2.94-2.79-5.05-5.9-5.68c-0.62-0.11-0.83-0.42-0.62-1.05c0.21-0.42,0.41-0.74,0.52-1.16
	c0.72-2.21,1.45-4.31,0.93-6.73c-0.83-3.68-4.66-6.84-8.69-7.05c-5.59-0.31-9.21,2.53-10.66,6.42c-0.1,0.42-0.83,0.63-1.35,0.84
	c-1.14,0.42-2.48,0.53-3.52,1.16c-3.31,2-5.07,5.37-6,9.05c-0.41,1.47-0.41,3.16-0.62,4.73c0.1,0,0.31,0.11,0.41,0.11
	c0.1-0.11,0.21-0.21,0.21-0.42c0.41-1.58,0.72-3.26,1.34-4.73c0.83-1.89,1.86-3.79,3.1-5.47c1.55-1.89,3.93-2.52,6.31-2.94
	c1.03-0.11,1.55-0.63,1.76-1.68c0.41-2.21,3.31-5.05,5.38-5.26c2.07-0.21,4.14-0.42,6.21,0.53c2.69,1.26,4.55,3.89,4.76,6.84
	c0.1,2.21-0.62,4.21-1.55,6.21c-0.41,0.74-0.52,1.26,0.62,1.47c2.79,0.74,5.17,2.1,6.31,5.05
	C481.79,221.85,482.1,222.17,482.41,222.59z M472.79,227.85c0.21-0.63,0.41-0.95,0.41-1.37c0.21-1.68-0.21-3.26-1.03-4.73
	c-1.86-2.84-4.45-4.31-7.76-4.73c-4.76-0.63-8.28,1.47-11.17,5.05c-1.45,1.79-1.55,4-1.45,6.21c0,1.26,0.21,2.53,0.31,3.79
	c0.1,0,0.31,0,0.41,0c0.1-1.16,0.21-2.21,0.31-3.36c0.1-2.31,0.73-4.42,2.17-6.21c2.38-2.84,5.59-3.89,9.21-3.58
	c3.1,0.21,5.69,1.68,7.14,4.52C472.07,224.69,472.27,226.06,472.79,227.85z"/>
<path class="st0" d="M316.76,54.6c-1.14-0.11-2.17-0.21-3.21-0.32c-2.69-0.21-5.28-0.42-7.97-0.53c-3.83-0.11-7.66,0.21-11.48-0.21
	c-2.48-0.21-4.86-1.37-7.24-2.21c-2.79-1.05-5.28-2.73-7.35-4.94c-1.76-1.79-2.9-4-3.31-6.52c-0.21-0.84,0.1-1.89,0.41-2.84
	c0.21-0.84,0.1-1.37-0.52-2c-4.55-4.42-4.04-10.1-1.14-14.94c1.35-2.31,3.21-4,5.79-4.94c3.31-1.16,6.31-0.84,9.11,1.37
	c0.31,0.32,0.73,0.63,1.03,0.95c0.73,0.74,1.35,0.84,2.17-0.11c1.45-1.68,3.41-2.52,5.69-2.63c4.97-0.21,8.9,2,11.59,6.1
	c2.59,3.89,2.38,7.68-0.72,12.1c-0.31,0.42-0.73,0.84-1.14,1.37c-0.52-0.84-0.93-1.58-1.45-2.31c-2.79-4.1-7.86-4.42-11.17-0.74
	c-2.17,2.42-3.31,5.26-2.48,8.52c0.93,3.47,3.21,5.79,6.52,6.84c2.38,0.74,4.86,0.95,7.35,1.47c2.38,0.53,4.86,1.05,7.24,1.68
	c0.83,0.21,1.24,0.63,1.45,1.58C315.73,52.49,316.35,53.44,316.76,54.6z M289.24,51.02c0-0.11,0.1-0.32,0.21-0.42
	c-0.83-0.53-1.55-1.05-2.38-1.58c-3.21-2-6-4.31-6.83-8.31c-0.31-1.47-0.21-3.16,0-4.73c0.1-0.74,0.1-1.16-0.41-1.68
	c-1.14-1.16-2.38-2.21-3-3.58c-1.65-3.47-0.93-6.84,1.55-9.68c1.76-2,3.93-3.26,6.62-2.84c2.48,0.42,4.55,1.68,6.42,3.58
	c1.14,1.16,1.24,1.16,1.97-0.32c1.45-2.63,3.62-4,6.52-4.42c0.41-0.11,0.93-0.11,1.76-0.32c-3.21-1.05-5.69-0.95-9.42,3.89
	c-0.31-0.32-0.72-0.53-1.03-0.84c-1.76-1.68-3.72-2.84-6-3.26c-2.9-0.63-5.28,0.74-7.45,2.73c-3.83,3.68-4.86,11.57,0.21,15.46
	c0.31,0.21,0.41,0.84,0.52,1.37c0.1,1.79-0.21,3.79,0.31,5.36c1.66,4.52,5.28,7.26,9.52,9.26
	C288.41,50.91,288.82,50.91,289.24,51.02z M302.48,27.98c0.1-0.11,0.1-0.21,0.21-0.21c-0.31-0.21-0.52-0.53-0.83-0.63
	c-0.93-0.53-2.07-0.42-3-0.63c-2.17-0.42-3.72,0.63-5.17,1.79c-6.1,4.84-6.21,14.62,0.41,18.93c1.86,1.26,6.1,2.21,8.38,1.89
	c-0.41-0.11-0.72-0.21-1.03-0.32c-1.96-0.84-4.24-1.37-6-2.52c-5.17-3.37-5.38-9.89-2.48-14.52c1.96-3.05,4.76-4.94,8.69-3.89
	C301.76,27.98,302.17,27.98,302.48,27.98z"/>
<path class="st0" d="M444.96,146.64c0.1-0.42,0.1-0.74,0.1-1.05c0.21-1.26,0.62-2.63,0.62-3.89c0.1-2.95-2.48-5.79-5.38-6.31
	c-3.62-0.63-6.83,0.11-9.21,3.16c-2.28,2.73-2.48,6-1.35,9.15c1.04,2.74,2.9,5.26,4.35,7.89c1.24,2.21,2.48,4.31,3.62,6.52
	c0.1,0.32,0.1,0.74,0,1.05c-0.62,1.26-1.35,2.42-2.07,3.68c-0.83-1.26-1.55-2.52-2.48-3.68c-2.07-2.63-4.24-5.37-6.52-7.89
	c-3.42-3.79-6.83-7.47-8.49-12.52c-1.03-3.37-2.07-6.84-1.45-10.31c0.52-3.26,1.65-6.21,4.86-7.78c0.62-0.32,1.03-0.84,1.03-1.68
	c0.1-4.63,2.9-8.21,7.24-9.99c2.17-0.84,4.45-1.37,6.83-1.05c4.35,0.63,8.79,3.89,8.69,9.89c0,1.79-0.1,1.79,1.66,2
	c3.1,0.21,5.38,1.79,6.93,4.31c2.69,4.42,3.21,8.94,0.83,13.68c-1.14,2.31-3.1,3.68-5.59,4.42
	C447.96,146.53,446.51,146.85,444.96,146.64z M453.13,130.02c0.1-0.11,0.21-0.11,0.31-0.21c-0.31-0.63-0.62-1.26-1.03-1.79
	c-2.17-2.42-4.97-3.37-8.17-2.52c-0.21-1.58-0.31-2.95-0.52-4.31c-0.41-4.1-4.03-7.57-8.07-7.78c-3-0.11-5.69,0.84-7.86,2.74
	c-2.07,1.79-3.62,4.1-3.31,7.15c0.1,0.95-0.21,1.79-1.24,2.42c-2.07,1.05-3.41,3.05-4.03,5.15c-1.24,4.1-0.83,8.1,0.62,11.99
	c0.1,0.21,0.21,0.53,0.21,0.74c0.21-0.11,0.31-0.21,0.52-0.42c-0.1-0.95-0.31-1.79-0.41-2.73c-0.21-2.1-0.83-4.1-0.31-6.31
	c0.73-3.37,2.17-6,5.17-7.68c0.73-0.42,1.03-1.05,1.03-1.89c-0.62-6,3.52-8.94,8.07-9.57c3.1-0.42,5.9,1.05,7.45,4
	c1.14,2.1,1.35,4.42,1.35,6.73c0,0.95,0.21,1.37,1.35,1.05c3.1-0.63,5.9-0.11,8.17,2.42C452.41,129.6,452.82,129.81,453.13,130.02z
	 M430.37,152.74c0.1,0,0.21-0.11,0.31-0.11c-0.62-1.26-1.24-2.63-1.86-3.89c-1.35-2.94-1.86-5.89-0.52-8.94
	c1.24-3.16,3.72-4.84,6.72-6c3.42-1.26,7.04-0.42,9.21,2.31c0.52,0.74,1.14,1.47,1.86,2.42c0-0.74,0.1-1.05,0-1.26
	c-0.52-0.95-0.93-2.1-1.55-2.95c-2.9-3.68-8.49-3.47-12.11-1.68c-3.1,1.47-4.86,4.1-6.1,7.26c-0.31,0.95-0.62,2-0.52,2.95
	C426.13,146.64,428.2,149.8,430.37,152.74z"/>
<path class="st0" d="M412.57,368.38c1.35-3.37,2.79-6.42,3.93-9.57c1.14-3.05,1.76-6.21,2.9-9.15c0.73-2.1,1.76-4,2.79-6
	c2.07-3.89,5.38-6.63,9.11-8.62c3.31-1.79,6.93-2.53,10.35,0.1c0.31,0.21,1.03,0.32,1.35,0.11c4.76-3.16,10.24-1.26,13.86,2.52
	c3.62,3.79,4.35,7.89,2.69,12.31c-0.83,2.31-2.59,3.79-4.76,4.84c-0.73,0.32-0.93,0.84-0.52,1.47c1.86,2.74,1.66,5.68,0.41,8.52
	c-1.66,3.79-4.55,6.21-8.28,7.57c-3.83,1.37-8.59-0.42-11.07-3.89c-0.41-0.63-0.83-1.26-1.35-2c0.93-0.31,1.76-0.63,2.59-0.74
	c3.83-0.74,6.83-5.89,4.35-10.31c-1.24-2.21-2.79-4.1-5.17-4.84c-4.35-1.37-8.9,0.42-11.38,4.84c-2.17,3.79-4.24,7.68-6.21,11.47
	c-0.62,1.16-1.45,1.68-2.79,1.58C414.43,368.28,413.5,368.38,412.57,368.38z M452.41,365.12c0.41-0.21,0.52-0.32,0.62-0.42
	c1.55-2.74,1.45-6.42-0.83-8.84c-0.73-0.84-0.52-1.05,0.31-1.58c1.55-1.16,3.1-2.31,4.34-3.79c1.35-1.37,1.76-3.26,1.76-5.26
	c-0.1-2.1-0.73-4-2.17-5.68c-2.28-2.63-4.97-4.31-8.49-4.31c-1.86,0-3.41,0.63-4.97,1.58c-0.31,0.21-0.93,0.32-1.24,0.11
	c-4.45-2.63-8.59-1.37-12.52,1.26c-1.24,0.84-2.17,2.21-3.42,2.84c-1.14,0.53-1.24,1.47-1.45,2.42c0.62-0.42,1.14-0.95,1.65-1.47
	c0.21-0.21,0.31-0.53,0.52-0.63c0.93-0.63,1.86-1.05,2.69-1.68c4.04-2.84,7.97-3.58,12.31-0.95c0.73,0.42,1.24,0.42,1.86-0.11
	c1.86-1.68,4.24-2.42,6.52-1.68c3.21,0.95,5.79,2.74,6.72,6.42c0.93,3.16,0.1,5.68-2.07,7.89c-1.14,1.16-2.59,1.89-3.93,2.84
	c-0.93,0.53-0.83,1.05-0.21,1.68c1.66,1.47,2.48,3.36,2.48,5.68C452.82,362.49,452.61,363.65,452.41,365.12z M441.65,363.02
	c0.1,0.11,0.21,0.11,0.41,0.21c1.96-1.68,3.1-3.89,2.9-6.52c-0.21-2.53-1.24-4.94-3.1-6.73c-2.48-2.42-5.28-4.31-9-3.58
	c-1.35,0.32-2.9,0.21-4.14,0.74c-2.28,0.95-3.62,3.05-4.97,5.05c-0.72,1.26-1.35,2.63-1.96,3.89c0.1,0.11,0.21,0.11,0.31,0.21
	c0.93-1.47,1.86-2.95,2.9-4.31c1.03-1.16,2.17-2.42,3.52-3.05c2.69-1.37,5.59-1.37,8.49-0.1c4.45,1.89,8.28,7.36,5.07,13.04
	C441.85,362.39,441.75,362.7,441.65,363.02z"/>
<path class="st0" d="M420.13,108.35c0.1-1.26,0.31-2.1,0.31-2.95c0.1-4.1-2.48-6.94-6.62-7.26c-3.72-0.21-6.62,1.26-8.49,4.42
	c-1.35,2.31-1.45,4.73-0.72,7.36c0.93,3.47,3.72,5.47,5.9,7.89c1.97,2.31,3.93,4.42,6,6.73c0.21,0.21,0.41,0.63,0.41,0.84
	c-0.41,1.47-0.93,2.95-1.35,4.21c-2.07-1.89-4.03-3.89-6.21-5.68c-2.9-2.31-6.1-4.42-9.11-6.73c-5.07-3.79-8.28-8.84-9.83-15.04
	c-0.93-3.58-0.62-6.73,1.55-9.68c0.1-0.11,0.21-0.32,0.31-0.42c1.65-0.95,1.55-2.42,1.45-4c-0.52-5.58,3.62-9.36,7.24-11.05
	c2.79-1.26,5.59-1.79,8.48-0.74c2.9,1.05,5.07,2.84,6,6c0.21,0.84,0.41,1.58,0.52,2.42c0.1,0.95,0.72,0.74,1.35,0.74
	c1.03,0,2.07-0.21,3-0.11c3.83,0.53,6.1,3.05,7.86,6.31c1.24,2.31,1.45,4.73,1.45,7.26c-0.1,3.89-3,7.47-6.72,8.52
	C421.99,107.72,421.16,108.03,420.13,108.35z M415.06,87.63c-0.31-1.05-0.52-2-0.83-3.05c-0.83-2.52-2.17-4.73-4.55-6.1
	c-2.79-1.58-5.59-1.37-8.38,0c-4.66,2.31-7.03,6.31-6.1,11.57c0.21,1.05,0,1.47-0.72,2.1c-1.35,1.26-2.17,2.84-2.59,4.63
	c-1.03,4.63,0.52,8.73,2.69,12.73c0.21,0.32,0.62,0.53,0.83,0.84c0.1-0.11,0.21-0.11,0.31-0.21c-0.1-0.42-0.31-0.84-0.41-1.26
	c-0.62-2-1.35-3.89-1.96-5.89c-1.14-3.68-0.1-6.84,2.28-9.47c1.14-1.26,2.28-2.42,1.14-4.21c-0.1-0.11-0.1-0.32-0.1-0.53
	c-0.52-4.31,2.07-7.89,6.41-9.26c1.86-0.53,3.62-0.53,5.38,0.32c3.41,1.58,4.45,4.73,5.17,8.1c0.31,1.37,0.52,1.58,1.66,0.95
	c2.9-1.37,5.59-1.16,8.17,0.63c0.41,0.21,0.83,0.42,1.35,0.74C423.95,87.1,419.71,86.05,415.06,87.63z M407.4,117.29
	c0.1-0.11,0.21-0.21,0.31-0.21c-0.93-1.16-1.86-2.31-2.69-3.58c-0.83-1.37-1.97-2.73-2.28-4.21c-0.72-2.95-0.31-5.89,1.55-8.42
	c1.97-2.74,4.66-4.31,7.86-4.63c2.28-0.32,4.45,0.84,6.21,2.52c0.41,0.42,0.83,0.74,1.24,1.16c0.21-0.53,0.21-0.95,0-1.16
	c-1.55-2.42-3.72-4-6.62-4.21c-2.69-0.11-4.97,0.84-7.24,2.21c-3.21,2-6.31,8.94-4.55,12.73
	C402.64,112.56,404.92,114.98,407.4,117.29z"/>
<path class="st0" d="M354.63,72.37c-2.48-0.74-4.66-1.58-7.04-2.21c-4.34-1.05-8.79-1.89-13.04-3.05
	c-7.03-1.89-12.52-5.89-15.83-12.62c-1.35-2.63-1.35-5.26,0-7.99c0.21-0.53,0.21-1.37-0.1-1.79c-2.79-4.1-2.38-8.2-0.1-12.2
	c1.66-2.95,4.14-5.05,7.45-6.1c3.62-1.05,8.49,0.32,10.55,4.1c0.62,1.26,0.93,1.26,2.07,0.42c2.59-1.89,5.48-2.1,8.38-0.84
	c4.34,1.79,7.35,4.84,8.38,9.68c0.93,4.1-1.24,8.2-4.55,10.52c-0.62,0.42-0.93,0.21-1.03-0.42c-0.52-2.52-1.86-4.42-4.04-5.47
	c-1.76-0.95-3.62-0.84-5.38-0.21c-1.96,0.84-3.62,2.31-4.76,4.21c-1.86,3.05-1.45,6,0.21,9.05c1.55,2.84,4.14,4.1,6.93,5.26
	c2.69,1.05,5.38,2.31,8.07,3.47c0.41,0.21,0.93,0.42,1.35,0.63c1.66,0.63,2.28,1.79,2.07,3.58C354.11,71,354.53,71.74,354.63,72.37z
	 M347.18,32.29c0-0.11,0.1-0.21,0.1-0.32c-0.83-0.32-1.55-0.74-2.38-0.84c-2.59-0.53-4.76,0.53-6.52,2.31
	c-0.83,0.84-1.24,0.63-1.76-0.21c-0.62-0.95-1.35-1.79-2.17-2.52c-2.07-1.89-4.45-3.05-7.24-2.52c-3.72,0.63-6.21,3.05-7.76,6.42
	c-1.65,3.37-1.45,6.84,0.83,9.78c0.62,0.95,0.93,1.47,0.41,2.52c-1.35,2.84-0.93,5.58,0.41,8.31c1.45,3.05,3.72,5.26,6.21,7.36
	c0.41,0.32,0.93,0.53,1.45,0.74c0.1-0.11,0.1-0.21,0.21-0.32c-0.31-0.32-0.62-0.74-0.93-1.05c-1.55-1.79-3.21-3.37-4.55-5.26
	c-2.28-3.16-2.38-6.63-0.83-10.1c0.41-0.95,0.41-1.68-0.41-2.31c-0.21-0.21-0.52-0.42-0.62-0.74c-2.28-3.37-1.86-7.89,0.93-10.83
	c3-3.16,7.14-3.79,10.55-1.26c1.35,0.95,2.28,2.42,3.31,3.58c0.93,1.05,1.35,1.05,2.07,0.21c1.66-2,3.62-3.05,6.21-2.95
	C345.42,32.29,346.35,32.29,347.18,32.29z M341.49,64.17c0.1-0.11,0.1-0.21,0.21-0.32c-1.14-0.63-2.38-1.26-3.52-2
	c-3.52-2-5.8-4.94-5.69-9.26c0.1-3.47,1.55-6.52,4.45-8.63c2.17-1.58,4.66-2.31,7.35-1.16c0.62,0.32,1.35,0.32,1.96,0.53
	c-0.93-1.68-2.48-2.31-4.14-2.52c-2.48-0.32-4.66,0.42-6.73,2.1c-4.35,3.58-5.48,7.99-4.35,12.83c0.21,1.05,0.52,2.1,1.24,2.84
	C334.76,61.54,337.97,63.22,341.49,64.17z"/>
<path class="st0" d="M387.84,97.93c-4.24-3.16-8.79-5.47-13.55-7.26c-5.8-2.21-10.87-5.36-14.49-10.62
	c-2.07-2.95-3.62-6.1-3.52-9.89c0.1-1.89,0.72-3.58,1.76-5.15c0.31-0.53,0.62-1.37,0.41-1.89c-1.76-4.1-0.93-7.89,1.76-11.15
	c2.79-3.37,6.31-5.58,10.87-5.05c3.52,0.42,6.1,2.21,7.55,5.58c0.1,0.32,0.31,0.74,0.41,1.05c0.21,0.63,0.72,0.95,1.35,0.63
	c3.31-1.58,6.41-0.95,9.21,1.05c4.34,3.05,6.62,8.1,5.38,13.57c-0.62,2.74-2.59,4.52-4.86,5.89c-0.21,0.11-0.41,0.21-0.62,0.32
	c-0.41,0.11-0.93,0.21-1.35,0.42c-0.1-0.42-0.31-0.95-0.31-1.37c0.21-4.1-4.04-7.68-8.07-6.84c-2.79,0.53-5.07,2-6.52,4.52
	c-1.76,2.84-1.55,5.79-0.21,8.73c1.45,2.95,4.04,4.52,6.62,6.31c2.69,1.89,5.28,3.89,7.97,5.79c0.62,0.42,0.83,0.95,0.62,1.79
	C388.05,95.41,388.05,96.57,387.84,97.93z M364.56,83.31c0.1-0.11,0.21-0.21,0.31-0.32c-0.21-0.32-0.31-0.63-0.52-0.95
	c-1.24-2.1-2.48-4.21-3.52-6.42c-1.55-3.47-1.03-6.84,1.14-9.89c0.73-0.95,0.62-1.58,0.1-2.63c-1.03-1.79-1.66-3.68-1.03-5.79
	c0.62-1.89,1.55-3.68,3.21-4.94c3.42-2.63,7.04-3.16,10.24,0c1.35,1.37,2.38,3.16,3.31,4.94c0.83,1.47,0.62,1.47,1.96,0.53
	c2.17-1.58,4.45-2.52,7.14-1.37c0.72,0.32,1.45,0.53,2.17,0.74c0.1-0.11,0.1-0.32,0.21-0.42c-0.83-0.53-1.55-1.26-2.38-1.58
	c-2.79-0.95-5.48-0.42-7.86,1.47c-0.62-1.16-1.03-2.21-1.66-3.16c-2.07-3.26-4.86-5.58-8.9-4.94c-3.83,0.63-6.52,2.95-8.28,6.42
	c-1.24,2.63-1.45,5.36-0.1,7.99c0.52,0.95,0.52,1.68-0.1,2.52c-1.45,1.79-1.66,4-1.55,6.21c0.21,4.42,2.48,7.78,5.28,10.94
	C363.94,82.89,364.25,83.1,364.56,83.31z M377.39,87.2c0.1-0.11,0.21-0.21,0.21-0.32c-0.62-0.53-1.14-1.05-1.76-1.47
	c-1.96-1.47-3.72-3.16-4.76-5.36c-1.86-4-0.52-9.05,2.9-12.1c3-2.63,7.66-3.47,11.07-0.63c0.31,0.21,0.62,0.42,1.03,0.63
	c-0.62-2.52-5.07-4.94-7.86-4.1c-1.55,0.42-3.1,1.05-4.45,1.89c-5.69,3.47-7.04,12.1-3.31,16.2
	C372.53,84.15,374.81,85.84,377.39,87.2z"/>
<path class="st0" d="M474.76,289.28c0-2.74,1.76-4.73,4.24-4.63c2.38,0,4.45,2,4.24,4.42c-0.21,2.63-1.86,4.84-4.55,4.84
	C476.52,293.7,474.76,291.7,474.76,289.28z"/>
<path class="st0" d="M406.98,416.88c-0.21-2.31,1.97-4.21,3.72-4.21c2.9-0.11,4.97,1.68,5.07,4.31c0.1,2.52-1.65,4.31-4.04,4.52
	C409.67,421.61,406.78,419.51,406.98,416.88z"/>
<path class="st0" d="M146.97,453.06c0,2.63-1.97,4.52-4.55,4.42c-2.38-0.1-4.14-2-4.04-4.52c0.1-2.52,2.28-4.52,4.76-4.42
	C145.31,448.65,146.97,450.54,146.97,453.06z"/>
<path class="st0" d="M282.51,483.78c-2.38,0-4.24-1.79-4.24-4.21c0-2.74,1.97-4.42,4.45-4.63c2.07-0.21,4.35,2.31,4.35,4.52
	C286.96,481.68,284.79,483.78,282.51,483.78z"/>
<path class="st0" d="M49.09,347.87c-0.1,2.74-1.86,4.63-4.55,4.52c-2.28-0.11-4.04-2-4.04-4.42c0-2.52,2.07-4.52,4.45-4.52
	C47.43,343.66,49.09,345.45,49.09,347.87z"/>
<path class="st0" d="M29.02,296.96c2.38,0.1,4.14,2,4.14,4.52c0,2.31-2.07,4.42-4.24,4.42c-2.38,0-4.35-2.1-4.35-4.52
	C24.67,298.64,26.43,296.85,29.02,296.96z"/>
<path class="st0" d="M461.2,336.51c0-2.52,1.96-4.31,4.66-4.31c2.17,0,4.14,2.1,4.14,4.52c0,2.53-2.07,4.42-4.66,4.31
	C463.37,340.82,460.99,338.93,461.2,336.51z"/>
<path class="st0" d="M362.7,36.4c2.38,0,4.14,1.89,4.14,4.31s-2.17,4.63-4.34,4.63c-1.97,0-4.24-2.1-4.24-3.89
	C358.25,38.29,359.91,36.4,362.7,36.4z"/>
<path class="st0" d="M35.53,157.26c0-2.42,1.97-4.42,4.45-4.42c1.97,0,4.45,2.31,4.35,4.31c-0.1,2.21-1.66,4.52-4.55,4.52
	C37.5,161.79,35.53,159.68,35.53,157.26z"/>
<path class="st0" d="M333.83,468.21c-0.1,2.52-1.96,4.31-4.45,4.21c-2.49-0.11-4.14-2.1-4.14-4.73c0-2.31,1.96-4.1,4.34-4.1
	C331.97,463.58,333.94,465.69,333.83,468.21z"/>
<path class="st0" d="M30.67,204.39c0,2.53-1.76,4.42-4.24,4.42c-2.38,0-4.14-1.79-4.24-4.21c-0.1-2.74,1.97-4.52,3.83-4.63
	C28.6,199.76,30.57,201.86,30.67,204.39z"/>
<path class="st0" d="M482.83,236.05c2.38,0,4.35,2,4.35,4.21c0,2.52-2.07,4.52-4.45,4.52c-1.96,0-4.24-1.79-4.14-4.63
	C478.58,238.05,480.45,236.16,482.83,236.05z"/>
<path class="st0" d="M93.99,81.21c-2.07,0-3.83-2-3.93-4.1c-0.21-2.31,2.17-4.73,4.35-4.63c2.38,0.11,4.24,1.79,4.24,4.31
	C98.65,79.42,96.79,81.21,93.99,81.21z"/>
<path class="st0" d="M191.77,471.47c0,2.42-1.97,4.42-4.35,4.31c-2.28,0-4.24-2-4.24-4.31c0-2.42,1.97-4.42,4.35-4.42
	C190.01,467.05,191.77,468.95,191.77,471.47z"/>
<path class="st0" d="M63.16,118.66c-2.69-0.11-4.55-2-4.45-4.63c0.1-2.21,2.07-4.1,4.24-4c2.59,0.11,4.45,2,4.35,4.52
	C67.3,116.87,65.44,118.76,63.16,118.66z"/>
<path class="st0" d="M226.85,14.52c0,2.42-1.86,4.42-4.34,4.31c-2.28,0-4.35-2.1-4.35-4.31c0-2.21,2.07-4.52,4.14-4.42
	C224.88,10.1,226.85,11.99,226.85,14.52z"/>
<path class="st0" d="M455.93,145.9c0-2.42,1.96-4.31,4.24-4.31c2.48,0,4.45,2,4.45,4.52c0,2.21-2.07,4.21-4.45,4.21
	C457.79,150.32,455.93,148.32,455.93,145.9z"/>
<path class="st0" d="M373.05,450.96c-2.69,0.11-4.35-2.53-4.35-4.31c0.1-2.31,1.96-4.42,4.24-4.42c2.48,0,4.45,2,4.34,4.52
	C377.19,449.17,375.32,451.07,373.05,450.96z"/>
<path class="st0" d="M103.1,429.29c-2.38-0.11-4.14-2.1-4.04-4.42c0.1-2.42,2.17-4.31,4.66-4.21c2.28,0.11,4.14,2.21,4.04,4.52
	C107.44,427.61,105.58,429.39,103.1,429.29z"/>
<path class="st0" d="M435.23,99.93c2.59,0.11,4.35,2,4.24,4.52c-0.1,2.42-2.07,4.21-4.35,4.21c-2.48-0.11-4.24-2-4.14-4.63
	C430.99,101.72,432.96,99.83,435.23,99.93z"/>
<path class="st0" d="M132.48,42.92c2.59-0.21,4.24,2.42,4.35,4.21c0,2.52-1.86,4.42-4.24,4.52c-2.48,0-4.45-1.89-4.45-4.42
	C128.03,44.92,130,42.92,132.48,42.92z"/>
<path class="st0" d="M317.9,26.4c-2.48,0-4.24-1.89-4.24-4.52c0-2.31,2.07-4.21,4.45-4.21c2.38,0,4.24,2.1,4.14,4.52
	C322.14,24.72,320.38,26.4,317.9,26.4z"/>
<path class="st0" d="M476.52,196.5c-2.38,0-4.24-1.89-4.24-4.21c0-2.42,1.76-4.42,4.04-4.52c2.48-0.11,4.45,1.89,4.45,4.31
	C480.86,194.61,479,196.5,476.52,196.5z"/>
<path class="st0" d="M406.36,68.9c0,2.42-1.86,4.21-4.35,4.21c-2.48,0-4.24-1.89-4.24-4.42c0-2.42,1.97-4.21,4.45-4.21
	C404.6,64.38,406.36,66.27,406.36,68.9z"/>
<path class="st0" d="M238.85,480.62c0,2.1-2.17,4.31-4.24,4.31c-2.48,0-4.45-2-4.45-4.42s2.07-4.31,4.55-4.31
	C236.88,476.1,238.95,478.31,238.85,480.62z"/>
<path class="st0" d="M270.51,8.84c2.48,0,4.35,1.89,4.35,4.52c0,2.42-1.86,4.21-4.24,4.21c-2.38,0-4.34-2-4.34-4.42
	C266.27,10.83,268.13,8.84,270.51,8.84z"/>
<path class="st0" d="M442.37,383.85c-2.48,0-4.34-1.89-4.34-4.31c0-2.31,1.96-4.31,4.34-4.31c2.38,0,4.35,2,4.35,4.42
	C446.61,381.95,444.65,383.85,442.37,383.85z"/>
<path class="st0" d="M179.98,26.19c0,2.42-1.97,4.31-4.24,4.31c-2.38,0-4.34-2-4.34-4.42c0-2.52,1.86-4.31,4.34-4.31
	C178.11,21.78,179.98,23.67,179.98,26.19z"/>
<path class="st0" d="M69.47,393.74c-2.59-0.63-3.72-2.31-3.31-5.05c0.31-1.89,2.38-3.47,4.35-3.36c1.45,0.11,3.31,1.68,3.72,3.26
	s-0.41,3.68-1.86,4.52C71.44,393.63,70.61,394.37,69.47,393.74c1.14-0.53,2.28-0.95,3.41-1.58c0.21-0.11,0.21-0.74,0.41-1.05
	c-0.31,0-0.72,0-0.93,0.11c-1.24,0.63-2.48,0.95-3.83,0.21c-0.41-0.21-0.93-0.42-1.66-0.74c0.31,1.26,0.83,1.89,1.66,2.31
	C68.75,393.1,69.06,393.42,69.47,393.74z"/>
<path class="st0" d="M18.77,252.15c0.21-2.21,2.07-3.47,4.97-3.26c1.55,0.11,2.9,2.31,3,4.31c0.1,1.79-1.97,4.1-4.04,4
	c-2.28-0.11-4.04-1.58-4.14-3.58c0.62,0.74,1.24,1.68,2.07,2.42c0.72,0.84,1.76,0.84,2.79,0.53c0.21-0.11,0.41-0.31,0.62-0.42
	c-0.21-0.21-0.41-0.42-0.62-0.42c-1.66-0.42-2.9-1.16-3.52-2.73C19.7,252.67,19.19,252.46,18.77,252.15z"/>
<g>
	<g>
		<path class="st0" d="M294.39,239c0,1.47,0.03,2.57,0,3.66c-0.17,5.65-0.2,11.31-0.57,16.94c-0.28,4.27-1.99,8.12-4.46,11.64
			c-4.05,5.77-9.37,10.04-15.51,13.36c-5.31,2.87-10.55,5.84-15.17,9.81c-2.7,2.32-5.69,2.42-8.74,0.61
			c-0.47-0.28-0.97-0.55-1.39-0.9c-4.83-4.11-10.41-7.02-15.88-10.13c-6.22-3.54-11.59-8.03-15.37-14.22
			c-2.67-4.38-4.05-9.15-4.09-14.28c-0.04-4.93-0.03-9.87-0.04-14.8c0-0.45,0-0.89,0-1.67c-0.73,0.59-1.22,0.96-1.69,1.36
			c-5.76,5-12.43,7.93-20,8.75c-19.53,2.1-34.54-10.54-38.47-25.94c-3.68-14.41,0.24-26.71,11.38-36.58
			c3.31-2.94,7.53-4.41,11.53-6.17c11.5-5.05,23.53-8.54,35.53-12.11c1.1-0.33,1.41-0.92,1.45-1.87c0.16-3.35,0.41-6.71,0.45-10.06
			c0.17-15.96,7.67-27.53,21.15-35.56c0.99-0.59,2-1.13,2.99-1.69c0.07-0.04,0.12-0.11,0.39-0.37c-1.49-1.79-2.91-3.68-4.5-5.4
			c-4.01-4.33-8.6-7.96-13.68-10.97c-1.18-0.7-2.29-0.87-3.62-0.45c-1.91,0.6-3.55-0.15-4.79-1.59c-1.2-1.39-1.19-3.03-0.48-4.67
			c0.78-1.82,2.35-2.62,4.15-2.7c1.58-0.07,2.68,1.1,3.74,2.17c0.91,0.92,1.78,1.97,2.87,2.61c6.65,3.93,12.51,8.79,17.53,14.66
			c0.96,1.13,1.83,2.34,2.69,3.56c0.61,0.87,1.37,1.19,2.41,1.03c1.68-0.27,3.36-0.5,5.04-0.76c4.44-0.7,8.82-0.19,13.17,0.66
			c1.64,0.32,2.77-0.05,3.79-1.49c4.93-6.98,11.29-12.43,18.55-16.86c1.67-1.02,3.26-2.05,4.47-3.7c1.43-1.96,3.78-2.34,5.67-1.21
			c1.82,1.08,2.8,3.67,2.1,5.54c-0.75,2.01-3.21,3.4-5.41,2.76c-1.66-0.48-2.94-0.04-4.3,0.79c-6.59,4.03-12.49,8.83-16.94,15.24
			c-0.19,0.28-0.36,0.57-0.62,0.97c1.34,0.75,2.64,1.44,3.9,2.19c9.94,5.94,16.86,14.31,19.44,25.67c1.05,4.63,0.9,9.53,1.26,14.31
			c0.14,1.82,0.2,3.65,0.31,5.47c0.06,0.92,0.43,1.42,1.45,1.73c13.27,3.93,26.49,7.95,39.16,13.66
			c10.49,4.73,16.96,12.6,19.59,23.58c4.61,19.24-7.52,39.33-27.8,43.12c-11.61,2.17-21.97-0.75-31.01-8.35
			C295.6,239.95,295.14,239.59,294.39,239z M270.56,177.3c0.37,0.66,0.51,0.96,0.69,1.24c7.64,11.86,15.17,23.79,22.98,35.53
			c3.28,4.94,6.94,9.68,10.83,14.15c3.77,4.33,8.67,6.78,14.68,6.29c1.1-0.09,2.22,0.07,3.31-0.04c1.22-0.12,2.48-0.24,3.61-0.66
			c9.28-3.51,15.11-12.15,14.02-21.62c-0.8-6.96-3.79-12.58-10.44-15.66c-2.96-1.37-5.95-2.71-9.01-3.87
			c-15.65-5.95-31.77-10.4-47.91-14.79C272.54,177.65,271.71,177.53,270.56,177.3z M236.51,177.3c-0.87,0.17-1.37,0.24-1.84,0.38
			c-10.89,3.14-21.8,6.2-32.64,9.47c-7.84,2.37-15.61,5.02-23.03,8.52c-2.95,1.4-5.94,2.78-8.02,5.49
			c-3.78,4.94-5.05,10.47-4.06,16.58c1.5,9.25,10.97,17.68,19.74,16.77c1.14-0.12,2.32,0.12,3.44-0.05c1.7-0.26,3.47-0.5,5.04-1.14
			c4.86-1.98,8.29-5.73,11.32-9.82c10.32-13.95,19.57-28.62,28.64-43.41C235.57,179.3,235.93,178.44,236.51,177.3z M228.44,163.72
			c0.5-0.1,0.95-0.16,1.4-0.27c5.56-1.37,11.11-2.8,16.69-4.08c3.13-0.72,6.27-1.7,9.55-0.96c5.75,1.3,11.49,2.66,17.23,3.99
			c1.88,0.44,3.76,0.9,5.79,1.39c0.08-0.62,0.19-1.07,0.19-1.51c-0.02-2.38,0.02-4.76-0.11-7.13
			c-0.68-12.08-10.82-22.62-22.77-23.72c-11.49-1.06-21.79,5.12-26.31,15.75c-2.18,5.13-2.15,10.51-1.89,15.92
			C228.21,163.28,228.34,163.46,228.44,163.72z M279.23,235.8c-17.07,0-34.1,0-51.24,0c0,4.91-0.01,9.71,0.04,14.5
			c0,0.27,0.52,0.73,0.84,0.76c1.35,0.16,2.71,0.26,4.07,0.26c14.93,0.01,29.85,0,44.78,0c0.45,0,0.9-0.04,1.52-0.07
			C279.23,246.05,279.23,240.97,279.23,235.8z M228.18,230.42c17.05,0,34.1,0,51.2,0c0-2.71-0.06-5.3,0.02-7.89
			c0.08-2.48-0.53-4.72-2.11-6.63c-0.32-0.39-0.93-0.75-1.41-0.75c-14.79-0.04-29.58-0.03-44.37-0.02c-0.35,0-0.9,0.06-1.03,0.28
			c-0.82,1.42-2.05,2.85-2.19,4.37C227.96,223.26,228.18,226.8,228.18,230.42z M228.02,256.27c0.31,2.89,0.94,4.66,2.39,6.79
			c2.33,3.42,5.56,5.83,9.03,7.94c4.39,2.67,8.85,5.22,13.23,7.89c0.79,0.48,1.28,0.42,2.02-0.03c3.59-2.18,7.2-4.33,10.85-6.41
			c3.83-2.18,7.47-4.57,10.32-7.99c1.97-2.36,3.29-5.01,3.52-8.2C262.24,256.27,245.17,256.27,228.02,256.27z M273.03,209.74
			c-0.26-0.62-0.34-0.9-0.49-1.14c-2.83-4.39-5.64-8.79-8.53-13.15c-0.25-0.38-0.96-0.64-1.46-0.65c-5.99-0.1-11.98-0.17-17.98-0.18
			c-0.47,0-1.12,0.37-1.38,0.77c-2.89,4.5-5.72,9.04-8.56,13.58c-0.17,0.27-0.28,0.57-0.51,1.04
			C247.14,209.85,259.98,210.24,273.03,209.74z M253.83,178.91c-2.71,3.33-4.44,6.81-6.67,10.32c4.46,0,8.62,0,13.12,0
			C258.1,185.73,256.07,182.48,253.83,178.91z"/>
	</g>
</g>
<g>
	<path class="st0" d="M170.67,320.64v-8.66h-7.42v26.99h4.68v4.49h-14.7v-4.49h4.58v-26.99h-7.37v8.66h-4.44v-13.15h29.12v13.15
		H170.67z"/>
	<path class="st0" d="M195.25,317.7c4.66,0,6.99,2.52,6.99,7.57v13.8h4.25v4.39h-9.19v-16.42c0-1.8-0.26-3.06-0.78-3.79
		c-0.52-0.73-1.32-1.1-2.4-1.1c-1.83,0-4.21,1.07-7.14,3.22v13.7h4.34v4.39h-13.77v-4.39h4.49v-27.23h-4.49v-4.34h9.43v13.82
		C189.95,318.9,192.7,317.7,195.25,317.7z"/>
	<path class="st0" d="M235.73,332.16H214.7c0.3,2.4,1.23,4.3,2.79,5.69c1.56,1.39,3.47,2.09,5.73,2.09c1.65,0,3.19-0.34,4.61-1.03
		c1.42-0.68,2.6-1.73,3.56-3.15l4.34,1.96c-1.37,2.13-3.16,3.74-5.38,4.83s-4.63,1.63-7.24,1.63c-2.71,0-5.11-0.56-7.21-1.69
		c-2.1-1.13-3.74-2.71-4.9-4.73s-1.75-4.3-1.75-6.83c0-2.51,0.58-4.78,1.73-6.8c1.15-2.02,2.73-3.6,4.74-4.74
		c2-1.14,4.22-1.71,6.64-1.71c2.64,0,4.94,0.58,6.91,1.75c1.96,1.17,3.51,2.84,4.64,5.01C235.02,326.64,235.63,329.21,235.73,332.16
		z M222.43,321.81c-1.86,0-3.49,0.62-4.89,1.87c-1.4,1.25-2.3,2.9-2.7,4.95h15.7c-0.46-2.05-1.44-3.7-2.94-4.95
		S224.39,321.81,222.43,321.81z"/>
	<path class="st0" d="M261.7,311.97v26.99h11.81v-11.15h4.46v15.63h-26.35v-4.49h4.63v-26.99h-4.63v-4.49h14.7v4.49H261.7z"/>
	<path class="st0" d="M302.79,327.22v11.84h4.2v4.39h-8.54v-3.08c-2.39,2.34-5.04,3.51-7.97,3.51c-1.54,0-2.96-0.36-4.24-1.07
		c-1.28-0.72-2.31-1.67-3.08-2.88c-0.77-1.2-1.16-2.53-1.16-4c0-1.58,0.43-2.98,1.28-4.21c0.85-1.23,2-2.18,3.45-2.85
		c1.45-0.67,2.9-1,4.37-1c2.45,0,4.73,0.72,6.85,2.15v-2.7c0-1.96-0.41-3.36-1.24-4.2c-0.83-0.84-2.19-1.26-4.08-1.26
		c-1.34,0-2.45,0.24-3.35,0.73c-0.9,0.49-1.64,1.22-2.23,2.21l-4.73-1.17c1.07-1.99,2.51-3.47,4.32-4.45
		c1.81-0.98,3.97-1.47,6.47-1.47c3.36,0,5.81,0.76,7.36,2.29C302.02,321.52,302.79,323.93,302.79,327.22z M291.15,340.09
		c2.42,0,4.69-1.01,6.8-3.03v-2.94c-2.15-1.67-4.3-2.51-6.44-2.51c-1.3,0-2.43,0.41-3.38,1.23c-0.95,0.82-1.42,1.85-1.42,3.09
		c0,1.19,0.41,2.18,1.24,2.97C288.78,339.69,289.84,340.09,291.15,340.09z"/>
	<path class="st0" d="M315.3,339.4h11.5v-5.18h4.3v9.24h-21.55v-4.06l15.63-16.92h-10.26v4.8h-4.2v-8.9h20.38v4.42L315.3,339.4z"/>
	<path class="st0" d="M343.01,322.78l5.44,14.18l5.28-14.18h-3.34v-4.42h11.98v4.42h-3.7l-12.39,31.91h-8.35v-4.3h4.94l2.98-7.38
		l-8.21-20.24h-4.2v-4.42H346v4.42H343.01z"/>
	<path class="st0" d="M235.07,375.43c0,1.69-0.37,3.17-1.12,4.46c-0.75,1.29-1.84,2.28-3.27,2.96c2.02,0.72,3.57,1.83,4.64,3.35
		c1.07,1.52,1.61,3.32,1.61,5.41c0,3.42-1.25,6.03-3.76,7.82c-2.51,1.79-6.26,2.69-11.25,2.69h-12.46v-4.49h4.44v-26.99h-4.44v-4.49
		h12.65c4.38,0,7.63,0.76,9.76,2.29C234.01,369.96,235.07,372.29,235.07,375.43z M229.7,375.71c0-1.69-0.6-2.96-1.79-3.81
		c-1.19-0.85-2.88-1.28-5.06-1.28h-3.56v10.5h3.6C227.43,381.13,229.7,379.32,229.7,375.71z M231.42,391.51
		c0-1.99-0.7-3.47-2.11-4.45s-3.59-1.47-6.55-1.47h-3.46v12.03h2.15c2.15,0,3.91-0.13,5.3-0.39s2.51-0.84,3.38-1.72
		C230.99,394.63,231.42,393.29,231.42,391.51z"/>
	<path class="st0" d="M266.96,390.82h-21.03c0.3,2.4,1.23,4.3,2.79,5.69c1.56,1.39,3.47,2.09,5.73,2.09c1.65,0,3.19-0.34,4.61-1.03
		c1.42-0.68,2.6-1.73,3.56-3.15l4.34,1.96c-1.37,2.13-3.16,3.74-5.38,4.83s-4.63,1.63-7.24,1.63c-2.71,0-5.11-0.56-7.21-1.69
		c-2.1-1.13-3.74-2.71-4.9-4.73s-1.75-4.3-1.75-6.83c0-2.51,0.58-4.78,1.73-6.8c1.15-2.02,2.73-3.6,4.74-4.74
		c2-1.14,4.22-1.71,6.64-1.71c2.64,0,4.94,0.58,6.91,1.75c1.96,1.17,3.51,2.84,4.64,5.01C266.25,385.29,266.86,387.86,266.96,390.82
		z M253.66,380.46c-1.86,0-3.49,0.62-4.89,1.87c-1.4,1.25-2.3,2.9-2.7,4.95h15.7c-0.46-2.05-1.44-3.7-2.94-4.95
		S255.62,380.46,253.66,380.46z"/>
	<path class="st0" d="M297.17,390.82h-21.03c0.3,2.4,1.23,4.3,2.79,5.69c1.56,1.39,3.47,2.09,5.73,2.09c1.65,0,3.19-0.34,4.61-1.03
		c1.42-0.68,2.6-1.73,3.56-3.15l4.34,1.96c-1.37,2.13-3.16,3.74-5.38,4.83s-4.63,1.63-7.24,1.63c-2.71,0-5.11-0.56-7.21-1.69
		c-2.1-1.13-3.74-2.71-4.9-4.73s-1.75-4.3-1.75-6.83c0-2.51,0.58-4.78,1.73-6.8c1.15-2.02,2.73-3.6,4.74-4.74
		c2-1.14,4.22-1.71,6.64-1.71c2.64,0,4.94,0.58,6.91,1.75c1.96,1.17,3.51,2.84,4.64,5.01C296.47,385.29,297.08,387.86,297.17,390.82
		z M283.88,380.46c-1.86,0-3.49,0.62-4.89,1.87c-1.4,1.25-2.3,2.9-2.7,4.95H292c-0.46-2.05-1.44-3.7-2.94-4.95
		S285.84,380.46,283.88,380.46z"/>
</g>
</svg>
