<svg id="Layer_1" data-name="Layer 1" xmlns="http://www.w3.org/2000/svg" viewBox="0 0 355.84 356.04 " fill="#cec089"><path d="M249,477.2c-7.67-12.79-14.6-25-20.78-37.65-11-22.44-20-45.56-24.51-70.25-4.56-24.95-4.24-49.5,8.05-72.47C228.29,266,254,247.94,289,244.32a96.82,96.82,0,0,1,105.7,83.23c2.92,21.64-.83,42.71-6.91,63.43-8.58,29.23-22.2,56.19-37.73,82.25-.57,1-1.12,1.94-1.64,2.94-.09.18,0,.46,0,1h4c24.57,0,49.14.07,73.72-.07,4.29,0,6.53,1.59,8,5.57q20.48,54.09,41.19,108.11,3.44,9-6.36,9H127.74c-6.54,0-8.68-3-6.4-9q20.61-54,41.18-108.1c1.49-4,3.7-5.63,8-5.6,24.58.14,49.15.07,73.73.07Zm48.65-222.9c-3.66.36-8,.39-12.35,1.06a87,87,0,0,0-73.4,93.39,205.24,205.24,0,0,0,13.65,57.88c17.06,44,42.35,83.08,71,120.24,2,2.59,2.71,1.19,3.94-.39A572.76,572.76,0,0,0,340.72,468c15.16-25.25,28.31-51.47,36.76-79.8,5.63-18.86,9.09-38.06,6.91-57.85C379.68,287.52,342,254.26,297.66,254.3Zm-132.74,335q13.65,0,27.31,0a14.06,14.06,0,0,0,4.78-.61q28.83-10.24,57.67-20.44c2.33-.82,2.16-1.64.85-3.33q-29-37.57-57.94-75.25a4.54,4.54,0,0,0-4.08-2c-6.23.1-12.47.14-18.7,0-2.1-.06-3,.65-3.78,2.58q-18.21,48-36.6,95.85c-1.14,3-.17,3.27,2.43,3.24C146.22,589.21,155.57,589.28,164.92,589.28ZM210.46,487.7a2.35,2.35,0,0,0,.83,2.37q27.36,35.59,54.67,71.21c1.8,2.37,3.36,1.72,5.41,1q52.2-18.6,104.42-37.17c17.46-6.22,34.9-12.5,52.4-18.59,2.73-.95,3.15-2,2-4.5a87,87,0,0,1-4.09-10.81c-.87-2.94-2.48-3.59-5.39-3.57q-38,.18-76,0a5.86,5.86,0,0,0-5.7,3.06,527.38,527.38,0,0,1-34.66,47.82c-4.66,5.76-7.39,5.77-12,.06a558.88,558.88,0,0,1-35.12-48.4c-.9-1.39-1.67-2.54-3.71-2.53C239.23,487.75,224.89,487.7,210.46,487.7ZM229.09,589H402.85c-1.22-1.63-2.07-2.8-3-3.95-10.64-13.82-21.37-27.57-31.84-41.53-2.11-2.82-3.88-3.19-7.05-2q-63.35,22.69-126.76,45.21C232.57,587.31,230.67,587.56,229.09,589Zm147-52.76a13.72,13.72,0,0,0,.91,1.59q19,24.74,38,49.48a4.62,4.62,0,0,0,4.1,2c13.71-.06,27.42-.09,41.12,0,2.8,0,3.08-.74,2.14-3.17q-13.14-34.1-26.06-68.25c-.89-2.36-1.85-2.52-4-1.74-10,3.69-20.1,7.23-30.16,10.82Z" transform="translate(-120.46 -243.81)"/><path d="M298.19,385.19a44,44,0,0,1-44-44.68c.19-24.79,20-43.94,45.3-43.75,23.91.17,43.29,20.33,43.1,44.84A44.15,44.15,0,0,1,298.19,385.19Zm.19-10.55a33.72,33.72,0,1,0-33.72-33.77A33.75,33.75,0,0,0,298.38,374.64Z" transform="translate(-120.46 -243.81)"/></svg>