<svg id="Layer_1" data-name="Layer 1" xmlns="http://www.w3.org/2000/svg" viewBox="0 0 383.25 372.28" fill="#cec089"><path d="M409.75,418.09a21.65,21.65,0,0,0,1.29-2.54c4.25-12.52,14.35-19.89,27.61-20.09,2.48,0,5,0,7.94,0,.09-1.87.25-3.54.25-5.21q0-98.8,0-197.59a27.72,27.72,0,0,1,.48-6.32,9.4,9.4,0,0,1,9.13-7q29-.15,58,0a5.57,5.57,0,0,1,5.9,5.49c.05,3.31-2.53,5.67-6.52,5.68-17,0-33.93,0-50.89,0h-4.65V424h27.15c-.6-5.7-1.16-11.24-1.76-16.77a717.07,717.07,0,0,1-1.93-134.11c1.2-15.27,3.16-30.49,5-45.71a19.11,19.11,0,0,1,19.3-17.31q21.71-.25,43.41,0a19.4,19.4,0,0,1,19.54,17.16,710.65,710.65,0,0,1,6.3,133.59c-1,20.41-3.24,40.76-4.91,61.13-.05.6-.09,1.2-.17,2.32h4.55q48.28,0,96.55,0a19.84,19.84,0,0,1,4.82.41c2.79.7,4.11,2.75,3.95,5.58a5,5,0,0,1-4.56,5.08,28.14,28.14,0,0,1-4.11.14q-49.59,0-99.17-.06c-2.74,0-4.09.74-5.34,3.28-3.43,7-9.29,10.57-17.08,10.76-5.33.12-10.66,0-16.34,0a57.06,57.06,0,0,0,.05,7,6.39,6.39,0,0,0,6.11,6,39.47,39.47,0,0,0,4.49.14H682.27c13.11,0,22.59,5.87,26.8,16.49,6.72,17-5.13,34.93-23.73,35.94-1.49.08-3,0-4.49,0H442.47c-17.22,0-25.26-5.36-31.79-21.18-.17-.4-.62-.69-.93-1ZM491.35,330c0,9.35-.59,18.75.12,28,1.82,24.23,4.14,48.42,6.45,72.6.51,5.25,3.65,7.67,8.85,7.69q21.13.06,42.27,0c5.13,0,8.42-2.73,8.87-7.73,2.3-25.43,5.34-50.85,6.47-76.34a668.37,668.37,0,0,0-6.31-123.85c-1-6.7-3.54-9.06-10.39-9.07q-19.45,0-38.91,0c-7.72,0-10.25,2.21-11.28,9.85A666.5,666.5,0,0,0,491.35,330Zm-44.49,76.69h-6.48c-12.6,0-19.4,6.83-19.4,19.42q0,29,0,58c0,13,6.82,19.82,19.84,19.82H682.21a30.23,30.23,0,0,0,5.21-.37,14.61,14.61,0,0,0,12.18-13.69c.38-7.14-3.93-13.52-10.66-15.29a29.59,29.59,0,0,0-7.42-.63q-68.85-.06-137.72,0a52.22,52.22,0,0,1-5.6-.22,17.49,17.49,0,0,1-15.58-14.84c-.46-2.92-.44-5.91-.67-9.28-5.18,0-10.26,0-15.34,0-8.44,0-14.59-3.87-18.17-11.45-1-2.09-2.16-2.6-4.25-2.58-8.48.09-17,.06-25.44,0-8.32,0-11.82-3.52-11.89-11.85C446.82,418.23,446.86,412.76,446.86,406.67Z" transform="translate(-409.75 -142.87)"/><path d="M781.61,424.33v-270H593.82c0,7.91,0,15.62,0,23.32,0,9.28-3.59,12.85-12.91,12.85-13.09,0-26.19.05-39.28,0-3.81,0-6.15-2.3-6.18-5.57,0-3.43,2.37-5.53,6.46-5.62H582.6c0-8.23,0-16.05,0-23.87,0-9,3.5-12.53,12.38-12.53H780.57c8.85,0,12.43,3.63,12.43,12.53V422.93c0,9.19-3.43,12.62-12.63,12.62h-76.7a25.69,25.69,0,0,1-3.73-.14,5.47,5.47,0,0,1-.57-10.66,20.4,20.4,0,0,1,4.82-.41q36.28,0,72.58,0Z" transform="translate(-409.75 -142.87)"/><path d="M687.75,179.28h58c8.15,0,11.44,3.2,11.46,11.22,0,9.85,0,19.71,0,29.56,0,7.2-3.62,10.78-10.86,10.79q-58.56,0-117.13,0c-7.26,0-10.87-3.55-10.92-10.75q-.12-15.15,0-30.31c.06-7.06,3.62-10.5,10.69-10.5Q658.37,179.26,687.75,179.28Zm-58,40.11H745.81V190.72H629.73Z" transform="translate(-409.75 -142.87)"/><path d="M668.64,278.24a19.15,19.15,0,1,1,19,19.38A19,19,0,0,1,668.64,278.24Zm19.12-7.68a7.91,7.91,0,0,0,0,15.82,7.91,7.91,0,1,0,0-15.82Z" transform="translate(-409.75 -142.87)"/><path d="M738.2,297.62a19.15,19.15,0,1,1,19-19.39A19.16,19.16,0,0,1,738.2,297.62Zm-.26-11.24a7.91,7.91,0,1,0-7.81-8.24A8,8,0,0,0,737.94,286.38Z" transform="translate(-409.75 -142.87)"/><path d="M707,329.37a19.16,19.16,0,1,1-38.31-.38,19.16,19.16,0,0,1,38.31.38Zm-19.17-8a7.74,7.74,0,0,0-7.9,7.7,7.91,7.91,0,0,0,7.89,8.15,8,8,0,0,0,7.94-7.77A7.85,7.85,0,0,0,687.78,321.38Z" transform="translate(-409.75 -142.87)"/><path d="M618.33,380.07a19.19,19.19,0,0,1,38.38-.17,19.38,19.38,0,0,1-19.15,19.41A19.18,19.18,0,0,1,618.33,380.07Zm11.26-.08a8,8,0,0,0,8,8.08,8.19,8.19,0,0,0,7.89-7.9,8,8,0,0,0-8.08-8A7.73,7.73,0,0,0,629.59,380Z" transform="translate(-409.75 -142.87)"/><path d="M738.15,310.13a19.17,19.17,0,0,1,0,38.34,19.17,19.17,0,1,1,0-38.34ZM746,329.34a7.7,7.7,0,0,0-7.63-7.95,7.83,7.83,0,0,0-8.2,7.81,8,8,0,0,0,8,8A7.9,7.9,0,0,0,746,329.34Z" transform="translate(-409.75 -142.87)"/><path d="M618.32,329.34a19.2,19.2,0,0,1,38.39-.33,19.2,19.2,0,1,1-38.39.33Zm19.21-8a7.72,7.72,0,0,0-7.94,7.66,7.88,7.88,0,0,0,7.84,8.19,8.09,8.09,0,0,0,8-8.09A8,8,0,0,0,637.53,321.38Z" transform="translate(-409.75 -142.87)"/><path d="M757.2,380a19.16,19.16,0,1,1-19.29-19.11A19.17,19.17,0,0,1,757.2,380Zm-11.25.45a7.73,7.73,0,0,0-7.68-8.28,7.84,7.84,0,0,0-8.14,7.5,8.08,8.08,0,0,0,7.73,8.38A8,8,0,0,0,746,380.47Z" transform="translate(-409.75 -142.87)"/><path d="M637.3,297.62a19.15,19.15,0,1,1,19.41-19.07A19.26,19.26,0,0,1,637.3,297.62Zm.08-11.24a7.91,7.91,0,1,0,.2-15.82,7.91,7.91,0,0,0-.2,15.82Z" transform="translate(-409.75 -142.87)"/><path d="M707,380a19.16,19.16,0,1,1-38.31,0A19.16,19.16,0,0,1,707,380Zm-19.23-7.79a7.72,7.72,0,0,0-7.83,7.77,7.91,7.91,0,1,0,15.82.26A7.84,7.84,0,0,0,687.72,372.18Z" transform="translate(-409.75 -142.87)"/></svg>